<svg width="21" height="20" viewBox="0 0 21 20" fill="none" xmlns="http://www.w3.org/2000/svg">
<g clip-path="url(#clip0)">
<path d="M2.97176 4.78261H5.02812L6.1634 3.04348C6.59181 2.3913 7.34152 2 8.11265 2H12.8251C13.5963 2 14.346 2.3913 14.7744 3.04348L15.9097 4.78261H17.966C19.2727 4.78261 20.3223 5.84783 20.3223 7.17391V15.6087C20.3223 16.9348 19.2727 18 17.966 18H2.97176C1.66512 18 0.61552 16.9348 0.61552 15.6087V7.17391C0.61552 5.84783 1.66512 4.78261 2.97176 4.78261ZM10.4689 16.0435C13.4035 16.0435 15.7811 13.6304 15.7811 10.6522C15.7811 7.67391 13.4035 5.28261 10.4689 5.28261C7.5343 5.28261 5.15664 7.69565 5.15664 10.6739C5.15664 13.6304 7.5343 16.0435 10.4689 16.0435ZM3.27165 8.15217C3.29307 8.15217 3.31449 8.15217 3.35733 8.15217H4.21415C4.59971 8.13043 4.8996 7.80435 4.87818 7.41304C4.85676 7.04348 4.57829 6.76087 4.21415 6.73913H3.35733C2.97176 6.71739 2.65046 7.02174 2.62904 7.41304C2.60762 7.80435 2.88608 8.13043 3.27165 8.15217Z" fill="white"/>
<path d="M10.4688 7.67389C12.0967 7.67389 13.4248 9.02172 13.4248 10.6739C13.4248 12.3261 12.0967 13.6522 10.4688 13.6522C8.84085 13.6522 7.51279 12.3043 7.51279 10.6522C7.51279 8.99998 8.84085 7.67389 10.4688 7.67389Z" fill="white"/>
</g>
<defs>
<clipPath id="clip0">
<rect width="19.7067" height="20" fill="white" transform="matrix(-1 0 0 1 20.3223 0)"/>
</clipPath>
</defs>
</svg>
