<svg width="31" height="31" viewBox="0 0 31 31" fill="none" xmlns="http://www.w3.org/2000/svg">
<path d="M4.6066 4.60659C-1.24211 10.4553 -1.24211 19.9711 4.6066 25.8198C10.4553 31.6685 19.9711 31.6685 25.8198 25.8198C31.6685 19.9711 31.6685 10.4553 25.8198 4.60659C19.9711 -1.24212 10.4553 -1.24212 4.6066 4.60659ZM20.7374 11.4566L16.9809 15.2132L20.7374 18.9698C21.2254 19.4577 21.2254 20.2495 20.7374 20.7374C20.2495 21.2254 19.4577 21.2254 18.9698 20.7374L15.2132 16.9809L11.4566 20.7374C10.9687 21.2254 10.1769 21.2254 9.68899 20.7374C9.20103 20.2495 9.20103 19.4577 9.68898 18.9698L13.4455 15.2132L9.68898 11.4566C9.20103 10.9687 9.20103 10.1769 9.68899 9.68898C10.1769 9.20102 11.4566 9.68898 11.9446 10.1769L15.2132 13.4455L18.9698 9.68898C19.4577 9.20102 20.2495 9.20102 20.7374 9.68898C21.2254 10.1769 21.2254 10.9687 20.7374 11.4566Z" fill="#A6A6A6"/>
</svg>
