<svg width="20" height="20" viewBox="0 0 20 20" fill="none" xmlns="http://www.w3.org/2000/svg">
<circle cx="10" cy="10" r="9.5" stroke="#ECECEC"/>
<path d="M11.143 9.14288H14.5715C15.0455 9.14288 15.4286 9.52689 15.4286 10C15.4286 10.4732 15.0455 10.8572 14.5715 10.8572H11.143H6.00021C5.52621 10.8572 5.14307 10.4732 5.14307 10C5.14307 9.52689 5.52621 9.14288 6.00021 9.14288H11.143Z" fill="#A6A6A6"/>
<path d="M9.42871 9.42867V6.00019C9.42871 5.52619 9.81272 5.14304 10.2859 5.14304C10.759 5.14304 11.143 5.52619 11.143 6.00019V9.42867V14.5714C11.143 15.0454 10.759 15.4286 10.2859 15.4286C9.81272 15.4286 9.42871 15.0454 9.42871 14.5714V9.42867Z" fill="#A6A6A6"/>
</svg>