<svg width="70" height="76" viewBox="0 0 70 76" fill="none" xmlns="http://www.w3.org/2000/svg">
<path d="M34.9908 38.0893C40.1479 38.0893 44.5497 36.2376 48.1972 32.5356C51.8451 28.8336 53.6694 24.3663 53.6694 19.1331C53.6694 13.9008 51.8451 9.43333 48.1972 5.73047C44.5485 2.02865 40.1466 0.177734 34.9908 0.177734C29.835 0.177734 25.4324 2.02865 21.7848 5.73047C18.1366 9.43333 16.3125 13.9006 16.3125 19.1331C16.3125 24.3663 18.1366 28.8336 21.7848 32.5356C25.4334 36.2376 29.8348 38.0893 34.9908 38.0893Z" fill="#ABABAB"/>
<path d="M69.0623 58.1059C68.9485 56.4445 68.7212 54.6505 68.3813 52.725C68.0407 50.7996 67.6106 49.0151 67.0916 47.3689C66.5727 45.7239 65.8754 44.1194 64.9999 42.556C64.1247 40.9928 63.1195 39.6603 61.9839 38.5573C60.8482 37.4547 59.4623 36.575 57.8259 35.9169C56.1875 35.2591 54.3796 34.9295 52.4015 34.9295C52.11 34.9295 51.4288 35.2833 50.3586 35.9909C49.2894 36.6986 48.0813 37.4886 46.7356 38.3611C45.39 39.232 43.638 40.0225 41.4825 40.729C39.326 41.4367 37.1618 41.7906 34.9885 41.7906C32.816 41.7906 30.6516 41.4367 28.4955 40.729C26.3395 40.0225 24.588 39.232 23.2422 38.3611C21.8967 37.4886 20.689 36.6988 19.6191 35.9909C18.5486 35.2833 17.868 34.9295 17.5762 34.9295C15.5982 34.9295 13.7903 35.2591 12.1529 35.9169C10.5152 36.575 9.12909 37.4554 7.99394 38.5573C6.85913 39.6603 5.8538 40.9928 4.97863 42.556C4.10346 44.1194 3.40632 45.7246 2.88738 47.3689C2.36862 49.0151 1.93878 50.7996 1.59839 52.725C1.25766 54.6505 1.03073 56.4433 0.917096 58.1059C0.803632 59.7685 0.74707 61.4716 0.74707 63.2158C0.74707 67.1642 1.93095 70.2832 4.29785 72.5705C6.66526 74.857 9.8109 76 13.7344 76H56.2465C60.1696 76 63.3149 74.857 65.6827 72.5705C68.051 70.2832 69.234 67.1647 69.234 63.2158C69.2336 61.4716 69.1771 59.7685 69.0623 58.1059Z" fill="#ABABAB"/>
</svg>
