 <svg width="874" height="680" viewBox="0 0 874 680" preserveAspectRatio="xMidYMid meet" fill="none"
    xmlns="http://www.w3.org/2000/svg">
    <path
      d="M450.398 112.11C385.584 109.835 323.86 88.8294 264.953 65.8217C206.045 42.814 147.621 17.3194 84.3608 5.13214C43.6266 -2.70759 -2.9079 -3.80991 -35.6918 18.1219C-67.2384 39.216 -77.4351 75.6368 -82.9107 109.421C-87.035 134.845 -89.457 161.609 -78.1634 185.402C-70.3184 201.928 -56.3923 215.817 -46.7572 231.646C-13.2187 286.71 -36.9115 354.622 -73.2493 408.397C-90.2906 433.619 -110.052 457.685 -123.197 484.537C-136.342 511.39 -142.424 542.158 -130.919 569.548C-119.512 596.692 -92.3528 617.089 -62.921 631.428C-3.14482 660.53 67.2931 668.899 135.976 673.625C288.023 684.075 440.877 679.552 593.327 675.019C649.742 673.343 706.412 671.641 761.906 662.876C792.733 658.008 824.552 650.283 846.928 631.622C875.333 607.945 882.371 567.846 863.338 538.145C831.414 488.338 743.118 475.974 720.821 422.516C708.536 393.097 721.154 360.319 739.003 333.034C777.297 274.496 841.479 223.145 844.866 156.23C847.183 110.276 816.329 64.2608 768.619 42.4701C718.601 19.6828 649.277 22.5489 612.378 60.2748C574.39 99.1648 507.629 114.112 450.398 112.11Z"
      fill="#787878" fill-opacity="0.06" />
    <svg width="532" height="600" viewBox="2 100 500 250" fill="none" xmlns="http://www.w3.org/2000/svg">
      <path
        d="M443.346 506.093C419.464 494.343 410.268 467.129 407.254 441.859C406.75 437.641 405.61 433.287 407.041 429.299C408.472 425.311 412.739 422.078 416.77 423.268C420.113 424.256 422.028 427.672 424.233 430.401C427.166 434.033 431.13 436.803 435.521 438.287C438.405 439.263 441.842 439.603 444.255 437.742C447.568 435.188 447.226 430.122 446.559 425.952C445.313 418.18 444.069 410.408 442.823 402.64C442.155 398.47 441.488 394.211 442.175 390.05C442.864 385.888 445.168 381.767 448.965 380.045C452.767 378.322 458.028 379.855 459.495 383.813C460.104 385.459 460.03 387.277 460.411 388.991C460.793 390.706 461.896 392.498 463.617 392.728C465.357 392.963 466.845 391.521 467.905 390.107C471.564 385.231 473.651 379.354 475.554 373.534C477.455 367.715 479.256 361.78 482.458 356.583C485.659 351.386 490.505 346.913 496.431 345.654C502.357 344.397 509.291 347.107 511.704 352.742C514.122 358.395 511.608 364.89 508.607 370.229C504.151 378.147 498.557 385.405 492.052 391.701C490.882 392.838 489.61 394.066 489.344 395.689C488.866 398.611 491.928 400.968 494.816 401.461C498.086 402.02 501.412 401.177 504.725 401.059C508.04 400.942 511.785 401.836 513.489 404.721C515.855 408.724 512.974 413.743 509.914 417.213C503.788 424.157 496.474 430.025 488.393 434.479C485.495 436.075 482.416 437.557 480.272 440.096C478.127 442.634 477.21 446.615 479.157 449.324C481.108 452.036 485.09 452.386 488.216 451.295C491.339 450.206 493.95 448.015 496.837 446.39C502.24 443.342 509.707 442.598 514.144 446.989C517.058 449.876 517.971 454.38 517.346 458.452C516.724 462.524 514.76 466.25 512.606 469.739C505.072 481.938 494.64 492.43 482.042 499.09C469.447 505.751 457.312 508.896 443.346 506.093Z"
        fill="#F5F5F5" />
      <path
        d="M447.412 489.336C449.16 476.079 452.281 461.708 456.063 446.791C457.021 443.065 457.971 439.382 458.904 435.755C459.846 432.134 460.778 428.544 461.907 425.089C464.136 418.168 466.805 411.684 469.534 405.609C472.26 399.529 475.065 393.86 477.73 388.578C480.408 383.299 482.993 378.427 485.543 374.086C490.612 365.381 495.523 358.857 499.078 354.517C500.849 352.339 502.279 350.697 503.265 349.595C503.739 349.072 504.113 348.66 504.392 348.35C504.65 348.073 504.787 347.936 504.797 347.944C504.807 347.954 504.69 348.109 504.452 348.404C504.186 348.727 503.832 349.154 503.384 349.701C502.439 350.833 501.046 352.508 499.311 354.712C495.836 359.105 491.011 365.654 486.017 374.368C483.507 378.715 480.952 383.591 478.306 388.875C475.67 394.167 472.886 399.837 470.185 405.91C467.482 411.978 464.839 418.444 462.631 425.33C461.513 428.768 460.593 432.327 459.652 435.956C458.72 439.582 457.773 443.262 456.817 446.986C453.037 461.894 449.904 476.226 448.12 489.437"
        fill="#E0E0E0" />
      <path
        d="M462.122 425.025C462.07 425.042 461.832 424.429 461.439 423.308C461.042 422.188 460.524 420.55 459.91 418.517C458.681 414.452 457.174 408.78 455.538 402.523C453.899 396.259 452.318 390.625 451.03 386.591C450.392 384.572 449.859 382.942 449.476 381.823C449.099 380.697 448.915 380.066 448.965 380.047C449.015 380.026 449.294 380.622 449.759 381.714C450.228 382.804 450.843 384.412 451.549 386.415C452.977 390.421 454.65 396.055 456.288 402.321C457.888 408.503 459.333 414.093 460.439 418.365C460.948 420.293 461.382 421.914 461.729 423.22C462.029 424.365 462.174 425.008 462.122 425.025Z"
        fill="#E0E0E0" />
      <path
        d="M514.239 406.743C514.248 406.796 513.498 407.002 512.136 407.329C510.78 407.663 508.81 408.138 506.399 408.8C501.566 410.086 494.953 412.097 487.752 414.633C480.554 417.185 474.139 419.77 469.554 421.776C467.252 422.763 465.411 423.611 464.136 424.189C462.862 424.773 462.146 425.073 462.121 425.026C462.096 424.976 462.766 424.585 464.003 423.915C465.239 423.251 467.049 422.324 469.329 421.267C473.87 419.129 480.276 416.452 487.493 413.892C494.714 411.346 501.38 409.411 506.264 408.26C508.7 407.664 510.693 407.271 512.075 407.031C513.459 406.795 514.226 406.689 514.239 406.743Z"
        fill="#E0E0E0" />
      <path
        d="M447.919 488.247C447.897 488.263 447.735 488.056 447.451 487.649C447.123 487.162 446.721 486.568 446.235 485.849C445.186 484.282 443.727 481.974 441.96 479.098C438.426 473.349 433.795 465.254 428.804 456.254C423.811 447.248 419.26 439.12 415.851 433.307C414.185 430.483 412.813 428.159 411.794 426.431C411.356 425.681 410.996 425.063 410.7 424.554C410.457 424.121 410.34 423.887 410.362 423.869C410.387 423.856 410.547 424.063 410.833 424.469C411.16 424.955 411.562 425.548 412.048 426.266C413.097 427.835 414.557 430.143 416.323 433.019C419.857 438.767 424.489 446.862 429.481 455.868C434.472 464.869 439.023 472.996 442.432 478.811C444.099 481.633 445.47 483.959 446.489 485.685C446.928 486.434 447.289 487.054 447.584 487.562C447.826 487.999 447.941 488.232 447.919 488.247Z"
        fill="#E0E0E0" />
      <path
        d="M515.689 454.299C515.699 454.324 515.471 454.461 515.026 454.7C514.497 454.974 513.848 455.307 513.061 455.712C511.243 456.627 508.791 457.863 505.807 459.363C499.681 462.444 491.271 466.798 481.981 471.622C472.693 476.448 464.232 480.731 458.04 483.686C454.945 485.167 452.431 486.336 450.674 487.111C449.862 487.463 449.192 487.753 448.647 487.99C448.181 488.184 447.929 488.274 447.918 488.247C447.908 488.224 448.137 488.085 448.581 487.845C449.109 487.575 449.757 487.241 450.544 486.834C452.363 485.921 454.815 484.688 457.799 483.186C463.925 480.104 472.337 475.748 481.627 470.923C490.915 466.098 499.374 461.817 505.564 458.862C508.66 457.382 511.175 456.21 512.932 455.436C513.746 455.083 514.414 454.793 514.958 454.557C515.426 454.364 515.675 454.276 515.689 454.299Z"
        fill="#E0E0E0" />
      <path
        d="M34.5523 120.963C34.5523 120.963 22.6812 123.847 32.0955 149.535C41.5108 175.221 48.612 188.232 48.612 188.232C48.612 188.232 50.1218 194.113 45.288 194.414C40.4553 194.714 30.2463 191.793 27.4394 197.324C24.5283 203.059 28.2013 209.247 36.4366 215.282C44.672 221.316 62.2312 235.2 63.8133 236.462C65.3668 237.7 66.7351 240.517 63.475 241.249C60.216 241.982 36.5047 241.592 36.9931 252.854C37.4804 264.116 63.1866 277.157 65.969 278.636C68.7514 280.117 69.2993 281.439 68.8673 283.011C68.4364 284.585 60.4788 283.703 53.7298 283.868C46.9819 284.033 39.186 285.407 40.0127 291.881C40.8384 298.355 55.1683 313.482 93.3861 321.954L111.352 324.72L123.012 310.671C146.133 279.083 146.915 258.262 143.263 252.852C139.611 247.444 132.847 251.556 127.668 255.886C122.489 260.215 117.093 266.13 115.73 265.233C114.367 264.336 113.908 262.981 115.02 260.033C116.134 257.085 126.838 230.321 119.772 221.539C112.707 212.755 95.1513 228.697 92.2189 230.299C89.2865 231.9 88.4545 228.88 88.8046 226.925C89.1621 224.932 93.1893 202.913 95.3939 192.945C97.5975 182.976 96.2728 175.903 90.3016 173.515C84.5422 171.213 78.7998 180.145 74.9704 183.109C71.1411 186.072 68.3949 180.659 68.3949 180.659C68.3949 180.659 65.1423 166.196 55.262 140.685C45.3817 115.175 34.3161 121.037 34.3161 121.037"
        fill="#EBEBEB" />
      <path
        d="M111.772 329.076C104.59 310.311 92.386 276.747 81.7577 247.985C71.1326 219.233 61.4896 193.21 54.4033 174.411C50.857 165.031 47.9831 157.434 45.9881 152.157C45.0029 149.546 44.2347 147.51 43.7048 146.104C43.4548 145.426 43.2622 144.901 43.1238 144.524C42.9962 144.168 42.944 143.979 42.944 143.979C42.944 143.979 43.0323 144.154 43.177 144.504C43.3281 144.875 43.5388 145.395 43.8101 146.063C44.3634 147.461 45.1657 149.482 46.1935 152.078C48.2576 157.304 51.189 164.886 54.7768 174.269C61.9588 193.033 71.6625 219.037 82.2865 247.79C92.9148 276.552 105.059 310.136 112.147 328.935"
        fill="#E0E0E0" />
      <path
        d="M41.5566 201.983C41.5747 201.948 42.0067 202.129 42.7728 202.487C43.541 202.84 44.6348 203.383 45.9818 204.067C48.6716 205.441 52.3381 207.433 56.3452 209.703C60.2894 211.957 63.8549 213.996 66.583 215.555C67.8161 216.25 68.8567 216.836 69.693 217.307C70.4304 217.718 70.8304 217.961 70.8134 217.997C70.7953 218.032 70.3623 217.855 69.593 217.503C68.8259 217.146 67.731 216.604 66.3914 215.905C63.7144 214.505 60.0734 212.466 56.0674 210.194C52.1104 207.971 48.5322 205.958 45.7935 204.42C44.556 203.73 43.5112 203.15 42.6717 202.681C41.9365 202.265 41.5407 202.019 41.5566 201.983Z"
        fill="#E0E0E0" />
      <path
        d="M72.1849 216.993C72.0466 216.923 75.8195 209.181 80.6118 199.704C85.4062 190.225 89.4047 182.599 89.543 182.67C89.6824 182.74 85.9105 190.481 81.1161 199.96C76.3228 209.437 72.3253 217.063 72.1849 216.993Z"
        fill="#E0E0E0" />
      <path
        d="M86.5127 261.891C86.485 261.863 86.7957 261.499 87.3799 260.866C88.047 260.151 88.8812 259.26 89.8707 258.201C91.9699 255.948 94.8566 252.824 97.9135 249.262C100.981 245.705 103.645 242.39 105.554 239.974C106.453 238.837 107.211 237.881 107.818 237.113C108.357 236.441 108.669 236.079 108.701 236.103C108.732 236.126 108.48 236.531 107.995 237.244C107.509 237.958 106.789 238.977 105.87 240.216C104.04 242.698 101.417 246.064 98.3422 249.63C95.2747 253.203 92.3338 256.293 90.158 258.478C89.0652 259.566 88.1715 260.437 87.5352 261.02C86.9021 261.608 86.5393 261.918 86.5127 261.891Z"
        fill="#E0E0E0" />
      <path
        d="M55.8206 254.413C55.8291 254.375 56.2664 254.438 57.0506 254.583C57.9497 254.765 59.0541 254.989 60.3565 255.251C63.142 255.841 66.982 256.692 71.2156 257.667C75.4504 258.641 79.2765 259.554 82.0397 260.243C83.3261 260.575 84.4167 260.857 85.3051 261.085C86.0733 261.297 86.4936 261.432 86.4851 261.471C86.4766 261.508 86.0393 261.445 85.2562 261.3C84.3571 261.118 83.2527 260.895 81.9503 260.631C79.1637 260.043 75.3237 259.191 71.089 258.217C66.8554 257.242 63.0292 256.329 60.2671 255.641C58.9796 255.309 57.889 255.027 57.0006 254.797C56.2324 254.584 55.8121 254.45 55.8206 254.413Z"
        fill="#E0E0E0" />
      <path
        d="M63.4324 295.655C63.4409 295.618 64.0006 295.703 65.0039 295.89C66.1084 296.109 67.5331 296.391 69.244 296.732C72.818 297.465 77.7485 298.518 83.1856 299.715C88.6247 300.912 93.5426 302.027 97.0952 302.861C98.7891 303.272 100.201 303.613 101.296 303.878C102.285 304.13 102.828 304.288 102.82 304.325C102.811 304.365 102.252 304.278 101.249 304.093C100.144 303.874 98.72 303.59 97.0091 303.252C93.434 302.516 88.5035 301.463 83.0643 300.265C77.6272 299.068 72.7105 297.954 69.1578 297.12C67.4628 296.709 66.0509 296.369 64.9571 296.104C63.9665 295.853 63.4239 295.693 63.4324 295.655Z"
        fill="#E0E0E0" />
      <path
        d="M101.937 303.853C101.908 303.827 102.289 303.355 103.002 302.526C103.786 301.625 104.807 300.451 106.038 299.035C108.598 296.082 112.119 291.994 115.877 287.367C119.644 282.746 122.942 278.474 125.308 275.366C126.446 273.874 127.391 272.635 128.114 271.686C128.78 270.819 129.163 270.351 129.195 270.373C129.227 270.396 128.904 270.907 128.292 271.815C127.68 272.721 126.774 274.018 125.629 275.604C123.342 278.778 120.087 283.095 116.314 287.726C112.55 292.357 108.976 296.414 106.336 299.301C105.013 300.741 103.93 301.895 103.164 302.677C102.401 303.458 101.966 303.879 101.937 303.853Z"
        fill="#E0E0E0" />
      <path
        d="M494.909 508.041C494.909 508.195 392.415 508.32 266.012 508.32C139.564 508.32 37.0921 508.195 37.0921 508.041C37.0921 507.888 139.564 507.764 266.012 507.764C392.415 507.765 494.909 507.889 494.909 508.041Z"
        fill="#263238" />
      <path
        d="M445.386 69.7792L414.515 69.7612C410.377 69.759 407.018 73.266 407.019 77.5933L407.016 83.192C407.017 87.5204 403.659 91.0263 399.521 91.0241L339.35 90.989C335.209 90.9869 331.855 87.4757 331.855 83.1484L331.857 77.5486C331.857 73.2213 328.501 69.7111 324.362 69.709L313.505 69.7016L286.486 69.6867C273.069 69.6792 262.187 80.5522 262.183 93.9714L262.107 483.576C262.105 496.987 272.971 507.862 286.382 507.872L445.279 507.964C458.697 507.972 469.578 497.099 469.583 483.68L469.658 94.0736C469.661 80.6629 458.796 69.7878 445.386 69.7792Z"
        fill="white" />
      <path
        d="M445.386 69.7803C445.386 69.7803 445.666 69.7824 446.216 69.8048C446.767 69.8569 447.603 69.792 448.679 69.9952C450.831 70.2485 454.108 70.9486 457.79 73.1425C459.651 74.1916 461.543 75.7004 463.333 77.6326C465.118 79.568 466.773 81.9876 467.96 84.8848C469.162 87.7725 469.812 91.1465 469.779 94.746C469.784 98.3327 469.788 102.151 469.792 106.197C469.812 138.564 469.839 185.387 469.875 243.244C469.884 301.107 469.895 370.002 469.908 446.501C469.909 456.063 469.909 465.745 469.909 475.539V482.905C469.881 485.372 469.721 487.911 468.978 490.315C468.279 492.718 467.283 495.061 465.875 497.16C464.473 499.26 462.769 501.156 460.816 502.775C456.866 505.946 451.918 507.967 446.786 508.22C441.693 508.37 436.637 508.258 431.521 508.289C421.305 508.283 410.992 508.279 400.586 508.274C379.773 508.263 358.595 508.254 337.1 508.242C326.352 508.237 315.526 508.23 304.628 508.224C299.18 508.222 293.711 508.217 288.228 508.215C282.724 508.496 277.011 507.042 272.409 503.847C267.784 500.675 264.372 495.874 262.779 490.547C261.923 487.893 261.764 485.058 261.765 482.329C261.765 479.595 261.766 476.866 261.766 474.14C261.77 463.239 261.772 452.41 261.775 441.66C261.78 420.16 261.787 398.973 261.792 378.155C261.807 336.521 261.822 296.362 261.835 258.106C261.855 219.85 261.872 183.497 261.889 149.475C261.898 132.465 261.909 116.037 261.917 100.245C261.92 98.271 261.921 96.3069 261.922 94.3534C261.936 93.3745 262.006 92.385 262.059 91.4072C262.229 90.44 262.305 89.4569 262.556 88.512C263.444 84.7082 265.204 81.1491 267.665 78.2189C270.144 75.3046 273.253 72.9957 276.674 71.4859C280.092 69.942 283.849 69.3983 287.471 69.443C294.705 69.4515 301.765 69.46 308.644 69.4675C312.085 69.4717 315.48 69.476 318.831 69.4803C320.505 69.4813 322.168 69.4845 323.821 69.4856C325.488 69.4036 327.229 69.8612 328.601 70.822C329.974 71.7827 331.031 73.167 331.573 74.7247C332.197 76.2845 332.048 77.9688 332.067 79.5223C332.067 80.3128 332.066 81.1013 332.064 81.8865C332.067 82.676 332.039 83.4559 332.139 84.2018C332.333 85.7052 332.968 87.1448 333.952 88.2673C334.918 89.4068 336.242 90.2197 337.665 90.5719C338.383 90.7517 339.098 90.8028 339.853 90.7879C340.602 90.789 341.349 90.7901 342.092 90.7911C345.064 90.7943 347.985 90.7986 350.857 90.8028C362.349 90.8198 373.045 90.8358 382.888 90.8496C387.81 90.8581 392.518 90.8656 397.008 90.873C398.124 90.8539 399.257 90.9241 400.317 90.8315C401.382 90.7102 402.403 90.3421 403.289 89.7856C405.073 88.6759 406.284 86.8352 406.695 84.8923C406.917 83.9209 406.878 82.9292 406.884 81.9429C406.886 80.9598 406.887 79.9915 406.889 79.0371C406.903 78.0901 406.843 77.1368 407.017 76.2047C407.177 75.2791 407.491 74.3959 407.933 73.6022C408.809 72.003 410.231 70.7964 411.812 70.175C413.406 69.4813 415.105 69.692 416.635 69.6601C422.862 69.6771 428.13 69.6909 432.392 69.7026C436.646 69.7197 439.893 69.7335 442.08 69.742C444.267 69.7558 445.386 69.7803 445.386 69.7803C445.386 69.7803 444.267 69.8026 442.083 69.8133C439.894 69.8197 436.65 69.8292 432.396 69.842C428.133 69.8473 422.865 69.8558 416.638 69.8654C415.089 69.9016 413.432 69.7026 411.896 70.3804C410.366 70.9879 408.989 72.1637 408.144 73.7182C407.717 74.4906 407.413 75.3472 407.262 76.2462C407.096 77.1411 407.153 78.0816 407.146 79.0382C407.147 79.9926 407.148 80.9608 407.148 81.944C407.145 82.9186 407.187 83.94 406.96 84.9497C406.539 86.9586 405.293 88.8685 403.444 90.0261C402.525 90.606 401.464 90.9922 400.353 91.121C399.228 91.2199 398.141 91.1497 397.011 91.172C392.521 91.1742 387.812 91.1763 382.891 91.1784C373.047 91.1816 362.352 91.1848 350.86 91.188C347.989 91.1891 345.067 91.1891 342.095 91.1901C341.352 91.1901 340.605 91.1901 339.856 91.1901C339.116 91.2061 338.318 91.155 337.572 90.9656C336.065 90.5953 334.665 89.7367 333.646 88.5376C332.606 87.3555 331.935 85.8403 331.731 84.2571C331.62 83.458 331.651 82.6664 331.648 81.8876C331.648 81.1023 331.648 80.3139 331.647 79.5234C331.626 77.938 331.766 76.3399 331.172 74.8715C330.658 73.3947 329.655 72.0871 328.358 71.1827C327.047 70.2783 325.457 69.8516 323.824 69.9303H318.834H308.647C301.766 69.9303 294.707 69.9303 287.475 69.9303C283.883 69.891 280.23 70.4261 276.876 71.9423C273.527 73.4256 270.482 75.6908 268.058 78.5466C265.651 81.4183 263.933 84.9051 263.065 88.628C262.82 89.5526 262.749 90.5155 262.58 91.4614C262.531 92.4233 262.462 93.3798 262.449 94.3545C262.45 96.309 262.45 98.2721 262.452 100.246C262.455 116.038 262.458 132.466 262.461 149.476C262.464 183.499 262.469 219.851 262.472 258.107C262.471 296.363 262.47 336.522 262.469 378.156C262.466 398.973 262.463 420.161 262.461 441.661C262.459 452.412 262.458 463.24 262.456 474.141C262.456 476.868 262.455 479.597 262.455 482.33C262.457 485.053 262.607 487.76 263.441 490.354C264.989 495.53 268.307 500.197 272.803 503.283C277.301 506.39 282.776 507.801 288.232 507.529C293.715 507.532 299.183 507.535 304.632 507.54C315.528 507.547 326.355 507.552 337.104 507.56C358.598 507.574 379.778 507.589 400.59 507.601C410.995 507.609 421.309 507.616 431.525 507.624C436.623 507.595 441.737 507.706 446.75 507.56C451.743 507.317 456.557 505.35 460.403 502.267C462.304 500.689 463.967 498.842 465.332 496.801C466.703 494.759 467.67 492.478 468.355 490.138C469.081 487.791 469.233 485.347 469.263 482.903C469.264 480.442 469.265 477.986 469.266 475.538C469.271 465.744 469.275 456.061 469.278 446.5C469.321 370.001 469.359 301.106 469.392 243.243C469.449 185.386 469.495 138.563 469.528 106.196C469.534 102.15 469.54 98.3306 469.545 94.7449C469.589 91.1678 468.956 87.8311 467.774 84.9604C466.607 82.0833 464.973 79.6766 463.211 77.7475C461.442 75.8217 459.568 74.3119 457.725 73.2596C454.074 71.0592 450.819 70.3389 448.675 70.0644C447.601 69.8495 446.769 69.9037 446.219 69.8388C445.665 69.8048 445.386 69.7803 445.386 69.7803Z"
        fill="#263238" />
      <path
        d="M301.524 109.12C301.525 109.225 297.51 109.342 292.557 109.383C287.606 109.424 283.59 109.373 283.59 109.269C283.589 109.164 287.602 109.046 292.554 109.005C297.507 108.964 301.523 109.015 301.524 109.12Z"
        fill="#263238" />
      <path
        d="M301.562 113.709C301.562 113.813 297.549 113.93 292.596 113.971C287.644 114.013 283.628 113.961 283.627 113.857C283.626 113.752 287.64 113.634 292.593 113.594C297.544 113.553 301.561 113.604 301.562 113.709Z"
        fill="#263238" />
      <path
        d="M301.599 118.297C301.6 118.402 297.587 118.519 292.633 118.56C287.681 118.601 283.666 118.55 283.666 118.446C283.664 118.341 287.678 118.223 292.63 118.182C297.584 118.141 301.598 118.192 301.599 118.297Z"
        fill="#263238" />
      <path d="M360.42 409.535H280.57V489.386H360.42V409.535Z" fill="#F5F5F5" />
      <path
        d="M350.992 455.216C344.496 446.146 330.693 439.932 319.479 441.599C310.386 442.954 302.348 447.176 297.943 456.202C296.7 458.75 298.294 461.772 301.109 462.109C316.231 463.913 331.576 463.864 346.685 461.954C349.019 461.66 351.792 461.013 351.951 458.126C352.009 457.081 351.602 456.07 350.992 455.216Z"
        fill="#B7B7B7" />
      <g opacity="0.5">
        <g opacity="0.5">
          <path opacity="0.5"
            d="M350.992 455.216C344.495 446.146 330.693 439.932 319.479 441.599C310.386 442.954 302.348 447.176 297.943 456.202"
            fill="white" />
        </g>
      </g>
      <path
        d="M315.092 454.767C315.037 454.809 314.574 454.35 313.95 453.497C313.341 452.643 312.583 451.335 312.229 449.73C311.878 448.13 311.893 446.667 311.891 445.623C311.907 444.577 311.956 443.931 312.032 443.928C312.107 443.925 312.197 444.569 312.283 445.61C312.385 446.646 312.436 448.09 312.768 449.608C313.104 451.127 313.765 452.391 314.279 453.284C314.803 454.173 315.158 454.716 315.092 454.767Z"
        fill="#F5F5F5" />
      <path
        d="M324.726 454.321C324.559 454.304 324.799 451.741 324.461 448.615C324.143 445.484 323.375 443.028 323.536 442.976C323.662 442.92 324.685 445.349 325.013 448.556C325.358 451.761 324.863 454.349 324.726 454.321Z"
        fill="#F5F5F5" />
      <path
        d="M334.68 452.853C334.525 452.786 335.274 451.067 335.456 448.811C335.664 446.558 335.225 444.736 335.389 444.697C335.514 444.639 336.224 446.485 336.009 448.86C335.81 451.237 334.794 452.932 334.68 452.853Z"
        fill="#F5F5F5" />
      <g opacity="0.3">
        <g opacity="0.3">
          <path opacity="0.3"
            d="M322.955 442.029C322.986 442.08 323.011 442.139 323.042 442.188C323.043 442.186 323.044 442.184 323.046 442.181L322.955 442.029Z"
            fill="black" />
        </g>
      </g>
      <path d="M361.351 151.391H280.57V272.484H361.351V151.391Z" fill="#F5F5F5" />
      <path d="M361.351 281.622H280.57V402.716H361.351V281.622Z" fill="#F5F5F5" />
      <path d="M449.82 258.753H369.038V371.813H449.82V258.753Z" fill="#F5F5F5" />
      <path d="M449.164 379.768H368.382V489.386H449.164V379.768Z" fill="#F5F5F5" />
      <path d="M449.82 151.391H369.038V251.413H449.82V151.391Z" fill="#F5F5F5" />
      <path
        d="M333.645 187.609C333.645 187.634 333.654 187.65 333.654 187.659V221.17C333.654 222.64 332.471 224.159 330.293 225.308C328.123 226.454 324.947 227.242 320.986 227.25H320.936C313.006 227.234 308.267 224.118 308.267 221.17V187.659C308.267 187.65 308.276 187.634 308.276 187.609C308.276 187.592 308.267 187.566 308.267 187.542C308.285 184.265 310.692 180.845 313.117 177.466C314.745 175.211 315.134 171.959 315.211 170.052C315.22 169.824 315.227 169.621 315.227 169.435H315.008C313.962 169.435 313.118 168.708 313.118 167.813V166.395C313.118 165.49 313.962 164.765 315.008 164.765H326.916C327.701 164.765 328.377 165.171 328.663 165.753C328.756 165.955 328.807 166.167 328.807 166.395V167.813C328.807 168.708 327.963 169.435 326.917 169.435H326.698C326.698 169.621 326.706 169.824 326.714 170.052C326.791 171.959 327.18 175.211 328.808 177.466C331.232 180.845 333.638 184.265 333.658 187.542C333.654 187.566 333.645 187.592 333.645 187.609Z"
        fill="#FAFAFA" />
      <path
        d="M333.645 187.609C333.645 187.609 333.641 187.493 333.615 187.266C333.603 187.039 333.559 186.703 333.481 186.267C333.309 185.399 332.897 184.14 332.078 182.65C331.27 181.154 330.072 179.443 328.638 177.467C327.198 175.411 326.582 172.544 326.516 169.435L326.512 169.237L326.697 169.255C327.544 169.332 328.478 168.841 328.604 167.982C328.626 167.559 328.608 167.036 328.612 166.557C328.645 166.084 328.476 165.682 328.125 165.39C327.779 165.1 327.32 164.955 326.839 164.971C326.323 164.972 325.803 164.974 325.276 164.975C324.223 164.977 323.146 164.981 322.047 164.984C319.847 164.989 317.558 164.994 315.187 165C314.622 164.972 314.096 165.139 313.723 165.519C313.547 165.708 313.416 165.939 313.378 166.189C313.342 166.415 313.366 166.77 313.36 167.062C313.364 167.354 313.352 167.706 313.369 167.955C313.404 168.208 313.52 168.45 313.702 168.645C314.074 169.046 314.621 169.223 315.228 169.186L315.481 169.171L315.478 169.435C315.459 170.787 315.329 172.154 315.032 173.521C314.729 174.882 314.256 176.259 313.427 177.474C311.806 179.797 310.018 182.144 309.03 184.911C308.796 185.601 308.625 186.315 308.565 187.039C308.528 187.751 308.544 188.54 308.542 189.293C308.542 190.82 308.543 192.361 308.544 193.916C308.544 197.027 308.545 200.194 308.546 203.403C308.544 209.046 308.542 214.557 308.54 219.879C308.554 220.538 308.495 221.234 308.625 221.793C308.754 222.384 309.107 222.916 309.512 223.379C310.348 224.308 311.452 224.982 312.599 225.481C314.916 226.46 317.407 226.864 319.821 226.965C322.239 227.07 324.621 226.875 326.843 226.331C329.036 225.77 331.186 224.866 332.565 223.271C332.902 222.874 333.159 222.423 333.311 221.949C333.464 221.482 333.427 220.978 333.433 220.439C333.436 219.391 333.44 218.361 333.442 217.352C333.447 215.334 333.453 213.397 333.459 211.548C333.496 204.174 333.527 198.198 333.547 194.031C333.57 191.986 333.586 190.388 333.6 189.269C333.613 188.18 333.645 187.609 333.645 187.609C333.681 187.608 333.687 188.18 333.711 189.269C333.721 190.388 333.74 191.986 333.762 194.031C333.784 198.198 333.813 204.174 333.849 211.548C333.856 213.397 333.862 215.334 333.869 217.352C333.871 218.361 333.875 219.391 333.878 220.439C333.873 220.946 333.92 221.519 333.743 222.08C333.571 222.626 333.282 223.129 332.919 223.563C331.427 225.298 329.21 226.214 326.962 226.803C324.683 227.369 322.264 227.576 319.8 227.475C317.342 227.377 314.797 226.977 312.388 225.966C311.194 225.448 310.029 224.752 309.11 223.735C308.663 223.225 308.261 222.627 308.1 221.921C307.943 221.191 308.017 220.545 307.998 219.879C307.996 214.557 307.994 209.046 307.992 203.403C307.993 200.194 307.994 197.027 307.994 193.916C307.995 192.361 307.996 190.82 307.996 189.293C308 188.521 307.982 187.793 308.025 186.997C308.089 186.216 308.272 185.459 308.521 184.737C309.556 181.85 311.381 179.486 312.996 177.178C314.526 174.872 314.909 172.03 314.978 169.435L315.226 169.684C314.58 169.726 313.809 169.513 313.337 168.977C313.095 168.715 312.929 168.375 312.884 168.014C312.861 167.647 312.878 167.381 312.873 167.062C312.884 166.743 312.851 166.483 312.902 166.107C312.96 165.754 313.142 165.436 313.376 165.188C313.851 164.688 314.574 164.493 315.184 164.529C317.556 164.535 319.845 164.54 322.045 164.545C323.144 164.549 324.221 164.552 325.274 164.554C325.801 164.555 326.32 164.557 326.837 164.558C327.382 164.544 327.96 164.718 328.383 165.084C328.822 165.429 329.056 166.049 329.002 166.557C328.992 167.06 329.014 167.506 328.979 168.035C328.806 169.169 327.6 169.71 326.696 169.615L326.877 169.435C326.917 172.487 327.505 175.314 328.869 177.304C330.278 179.291 331.463 181.034 332.251 182.558C333.05 184.076 333.438 185.365 333.58 186.25C333.644 186.695 333.671 187.034 333.666 187.264C333.675 187.494 333.66 187.609 333.645 187.609Z"
        fill="#263238" />
      <path
        d="M326.021 169.354C326.021 169.507 323.649 169.63 320.721 169.63C317.792 169.63 315.421 169.507 315.421 169.354C315.421 169.2 317.792 169.076 320.721 169.076C323.649 169.076 326.021 169.2 326.021 169.354Z"
        fill="#263238" />
      <path
        d="M332.585 192.086C331.512 191.391 330.103 191.697 328.953 192.24C327.802 192.783 326.715 193.548 325.468 193.749C323.997 193.985 322.518 193.399 321.21 192.66C319.901 191.92 318.668 191.009 317.26 190.508C314.564 189.545 311.372 190.297 309.337 192.374V221.15C309.337 221.15 310.919 226.061 322.048 225.289C333.177 224.517 332.3 219.607 332.3 219.607L332.585 192.086Z"
        fill="#B7B7B7" />
      <path
        d="M418.591 420.542C418.591 420.566 418.6 420.583 418.6 420.592V453.884C418.6 455.344 417.425 456.853 415.26 457.995C413.104 459.134 409.95 459.916 406.015 459.925H405.965C398.086 459.908 393.38 456.811 393.38 453.883V420.591C393.38 420.582 393.388 420.566 393.388 420.541C393.388 420.524 393.38 420.499 393.38 420.475C393.396 417.217 395.788 413.82 398.196 410.464C399.814 408.224 400.2 404.994 400.275 403.097C400.284 402.872 400.293 402.67 400.293 402.485H400.076C399.034 402.485 398.196 401.763 398.196 400.874V399.464C398.196 398.567 399.033 397.846 400.076 397.846H411.904C412.683 397.846 413.355 398.249 413.642 398.829C413.734 399.029 413.783 399.239 413.783 399.465V400.875C413.783 401.764 412.945 402.486 411.904 402.486H411.687C411.687 402.671 411.696 402.873 411.703 403.099C411.779 404.995 412.167 408.224 413.783 410.465C416.192 413.822 418.583 417.219 418.6 420.476C418.6 420.5 418.591 420.525 418.591 420.542Z"
        fill="#FAFAFA" />
      <path
        d="M418.591 420.542C418.591 420.542 418.585 420.428 418.562 420.202C418.55 419.977 418.505 419.644 418.428 419.21C418.256 418.347 417.847 417.096 417.033 415.615C416.228 414.13 415.041 412.429 413.613 410.466C412.184 408.423 411.572 405.574 411.506 402.486L411.502 402.289L411.687 402.305C412.529 402.383 413.456 401.895 413.58 401.042C413.603 400.622 413.583 400.101 413.587 399.628C413.619 399.157 413.452 398.758 413.104 398.468C412.762 398.18 412.306 398.037 411.829 398.051C411.318 398.052 410.8 398.054 410.276 398.055C409.229 398.058 408.159 398.062 407.067 398.065C404.881 398.07 402.608 398.076 400.253 398.082C399.691 398.054 399.167 398.22 398.799 398.596C398.624 398.785 398.495 399.014 398.456 399.262C398.42 399.485 398.445 399.838 398.438 400.127C398.442 400.418 398.431 400.767 398.448 401.014C398.483 401.265 398.598 401.506 398.778 401.7C399.148 402.097 399.69 402.273 400.294 402.236L400.545 402.221L400.542 402.485C400.525 403.828 400.395 405.186 400.099 406.546C399.798 407.897 399.329 409.265 398.503 410.472C396.893 412.78 395.118 415.111 394.139 417.86C393.905 418.546 393.735 419.254 393.676 419.975C393.639 420.681 393.653 421.463 393.652 422.213C393.653 423.729 393.655 425.261 393.655 426.807C393.655 429.895 393.656 433.041 393.656 436.229C393.654 441.838 393.653 447.31 393.651 452.598C393.663 453.253 393.607 453.945 393.735 454.499C393.863 455.088 394.213 455.615 394.616 456.074C395.443 456.998 396.542 457.667 397.682 458.162C399.985 459.133 402.458 459.535 404.856 459.636C407.26 459.743 409.623 459.546 411.832 459.006C414.009 458.45 416.146 457.551 417.516 455.967C417.851 455.574 418.105 455.125 418.256 454.656C418.408 454.192 418.372 453.691 418.379 453.157C418.381 452.115 418.384 451.091 418.387 450.088C418.392 448.084 418.398 446.16 418.404 444.322C418.44 436.998 418.471 431.059 418.493 426.919C418.515 424.889 418.532 423.302 418.546 422.188C418.558 421.109 418.591 420.542 418.591 420.542C418.627 420.54 418.634 421.109 418.656 422.19C418.668 423.304 418.686 424.891 418.707 426.921C418.73 431.063 418.759 437 418.796 444.324C418.801 446.162 418.807 448.087 418.815 450.09C418.818 451.092 418.82 452.117 418.823 453.159C418.819 453.661 418.866 454.231 418.689 454.79C418.519 455.33 418.232 455.831 417.87 456.262C416.387 457.985 414.182 458.897 411.951 459.483C409.688 460.044 407.283 460.249 404.835 460.15C402.392 460.052 399.865 459.654 397.47 458.65C396.285 458.135 395.127 457.444 394.214 456.433C393.769 455.926 393.369 455.332 393.211 454.63C393.053 453.903 393.126 453.263 393.108 452.601C393.107 447.313 393.104 441.841 393.102 436.233C393.103 433.044 393.103 429.899 393.104 426.81C393.104 425.264 393.105 423.732 393.107 422.216C393.112 421.449 393.092 420.726 393.133 419.935C393.199 419.159 393.381 418.405 393.626 417.689C394.657 414.821 396.47 412.472 398.073 410.179C399.595 407.888 399.974 405.064 400.043 402.487L400.293 402.737C399.649 402.779 398.884 402.565 398.413 402.033C398.172 401.773 398.007 401.434 397.963 401.076C397.939 400.71 397.956 400.447 397.952 400.129C397.963 399.813 397.93 399.554 397.981 399.18C398.038 398.83 398.219 398.513 398.452 398.266C398.926 397.771 399.642 397.576 400.251 397.611C402.606 397.618 404.88 397.623 407.065 397.628C408.156 397.633 409.226 397.636 410.274 397.638C410.798 397.64 411.316 397.641 411.827 397.643C412.368 397.627 412.942 397.8 413.363 398.165C413.799 398.506 414.031 399.123 413.978 399.63C413.967 400.129 413.992 400.571 413.956 401.098C413.782 402.225 412.584 402.761 411.684 402.669L411.865 402.488C411.905 405.52 412.489 408.329 413.843 410.305C415.242 412.28 416.421 414.012 417.203 415.525C417.997 417.034 418.382 418.314 418.522 419.193C418.586 419.635 418.613 419.972 418.608 420.201C418.619 420.428 418.606 420.542 418.591 420.542Z"
        fill="#263238" />
      <path
        d="M411.017 402.405C411.017 402.559 408.658 402.684 405.751 402.684C402.841 402.684 400.484 402.559 400.484 402.405C400.484 402.252 402.841 402.128 405.751 402.128C408.658 402.128 411.017 402.253 411.017 402.405Z"
        fill="#263238" />
      <path
        d="M417.538 424.99C416.473 424.3 415.073 424.604 413.928 425.144C412.785 425.683 411.707 426.443 410.466 426.643C409.004 426.878 407.535 426.296 406.235 425.56C404.935 424.825 403.711 423.92 402.311 423.421C399.633 422.465 396.462 423.212 394.442 425.275V453.865C394.442 453.865 396.013 458.743 407.068 457.974C418.127 457.208 417.253 452.33 417.253 452.33L417.538 424.99Z"
        fill="#E8505B" />
      <path d="M417.537 423.01H394.441V458.056H417.537V423.01Z" fill="#B7B7B7" />
      <path
        d="M417.539 424.99C416.474 424.3 415.074 424.604 413.929 425.144C412.786 425.683 411.708 426.443 410.466 426.643C409.005 426.878 407.536 426.296 406.236 425.56C404.936 424.825 403.712 423.92 402.312 423.421C399.634 422.465 396.463 423.212 394.443 425.275V453.865C394.443 453.865 396.014 458.743 407.069 457.974C418.127 457.208 417.254 452.33 417.254 452.33L417.539 424.99Z"
        fill="#B7B7B7" />
      <path
        d="M435.914 299.554C435.291 299.224 434.467 299.355 433.676 299.817C433.512 299.916 433.347 300.048 433.183 300.179C428.446 303.864 421.803 306.165 414.5 306.165C401.425 306.165 390.597 298.835 388.657 289.259V287.448C388.657 286.728 388.074 286.145 387.355 286.145C386.635 286.145 386.052 286.728 386.052 287.448V292.52C386.052 292.641 386.092 292.753 386.121 292.865C385.251 294.856 384.732 296.969 384.732 299.19C384.732 310.244 396.442 319.222 410.915 319.222C423.05 319.222 433.278 312.909 436.239 304.321C436.273 304.29 436.304 304.225 436.304 304.19C436.669 303.434 436.865 302.645 436.865 301.988C436.934 300.87 436.605 299.949 435.914 299.554Z"
        fill="#B7B7B7" />
      <g opacity="0.3">
        <g opacity="0.3">
          <path opacity="0.3"
            d="M387.684 294.2C387.684 294.2 400.005 322.56 433.402 302.686C433.402 302.686 424.79 311.621 413.564 313.795C403.427 315.759 388.373 310.033 387.684 294.2Z"
            fill="black" />
        </g>
      </g>
      <path
        d="M436.827 300.984C436.621 301.476 435.821 301.608 435.044 301.281C434.268 300.952 433.807 300.285 434.013 299.796C434.224 299.3 435.022 299.17 435.796 299.5C436.573 299.827 437.035 300.492 436.827 300.984Z"
        fill="#263238" />
      <path
        d="M449.281 118.098C449.281 118.103 449.191 118.109 449.019 118.116C448.829 118.121 448.579 118.127 448.262 118.136C447.586 118.147 446.638 118.161 445.464 118.18C443.075 118.201 439.777 118.231 436.069 118.264H435.992L435.98 118.188C435.908 117.691 435.829 117.166 435.754 116.632C435.104 112.079 434.523 108.014 434.142 105.358L434.198 105.406C433.141 105.401 432.294 105.398 431.697 105.396C431.417 105.39 431.197 105.387 431.031 105.384C430.878 105.38 430.801 105.375 430.801 105.37C430.801 105.365 430.878 105.358 431.031 105.353C431.196 105.349 431.417 105.342 431.696 105.334C432.294 105.325 433.139 105.31 434.197 105.293H434.247L434.255 105.342C434.649 107.996 435.253 112.057 435.927 116.607C436.005 117.14 436.082 117.666 436.155 118.163L436.068 118.087C439.776 118.076 443.074 118.068 445.463 118.06C446.637 118.065 447.586 118.069 448.262 118.071C448.579 118.075 448.829 118.08 449.019 118.083C449.191 118.087 449.281 118.092 449.281 118.098Z"
        fill="#263238" />
      <path
        d="M435.67 115.441C435.67 115.439 435.692 115.435 435.736 115.433C435.788 115.431 435.852 115.428 435.931 115.425C436.115 115.42 436.366 115.414 436.687 115.407C437.36 115.396 438.316 115.382 439.514 115.365C441.941 115.343 445.336 115.312 449.264 115.276L449.18 115.347C449.461 113.704 449.763 111.927 450.076 110.089C450.236 109.143 450.397 108.214 450.547 107.328L450.634 107.43C446.07 107.445 442.043 107.459 439.141 107.468C437.706 107.465 436.549 107.463 435.738 107.462C435.349 107.458 435.043 107.454 434.822 107.452C434.725 107.449 434.648 107.447 434.583 107.445C434.531 107.443 434.502 107.44 434.502 107.437C434.502 107.434 434.531 107.432 434.583 107.429C434.647 107.426 434.725 107.423 434.822 107.419C435.043 107.414 435.348 107.408 435.738 107.398C436.55 107.387 437.706 107.371 439.14 107.351C442.042 107.328 446.069 107.294 450.633 107.254H450.737L450.72 107.358C450.569 108.243 450.41 109.173 450.25 110.119C449.935 111.957 449.63 113.733 449.348 115.375L449.337 115.446H449.265C445.337 115.457 441.942 115.465 439.514 115.472C438.317 115.468 437.36 115.465 436.688 115.463C436.367 115.46 436.115 115.457 435.931 115.455C435.854 115.451 435.788 115.449 435.736 115.448C435.691 115.445 435.67 115.443 435.67 115.441Z"
        fill="#263238" />
      <path
        d="M439.393 121.742C439.375 121.743 439.374 121.625 439.316 121.428C439.255 121.235 439.118 120.957 438.827 120.745C438.542 120.533 438.083 120.418 437.641 120.588C437.204 120.744 436.831 121.213 436.839 121.757C436.837 122.3 437.216 122.765 437.655 122.916C438.098 123.08 438.559 122.961 438.838 122.745C439.129 122.53 439.263 122.25 439.319 122.057C439.375 121.86 439.375 121.742 439.393 121.742C439.4 121.742 439.424 121.86 439.385 122.073C439.348 122.281 439.224 122.595 438.915 122.845C438.617 123.095 438.106 123.247 437.6 123.071C437.1 122.909 436.658 122.381 436.661 121.758C436.652 121.134 437.086 120.601 437.585 120.434C438.088 120.252 438.601 120.398 438.902 120.645C439.214 120.891 439.341 121.203 439.381 121.411C439.422 121.624 439.4 121.743 439.393 121.742Z"
        fill="#263238" />
      <path
        d="M447.895 121.693C447.878 121.693 447.877 121.576 447.82 121.379C447.76 121.186 447.622 120.908 447.33 120.696C447.045 120.483 446.586 120.369 446.145 120.54C445.707 120.695 445.334 121.164 445.343 121.708C445.34 122.251 445.719 122.716 446.159 122.868C446.601 123.031 447.062 122.912 447.341 122.696C447.632 122.481 447.766 122.201 447.823 122.008C447.878 121.81 447.878 121.693 447.895 121.693C447.904 121.692 447.927 121.811 447.889 122.024C447.851 122.232 447.727 122.546 447.418 122.796C447.119 123.045 446.61 123.198 446.103 123.022C445.603 122.861 445.162 122.332 445.165 121.709C445.155 121.085 445.589 120.552 446.088 120.385C446.592 120.203 447.105 120.349 447.406 120.596C447.717 120.842 447.844 121.154 447.884 121.362C447.925 121.574 447.904 121.693 447.895 121.693Z"
        fill="#263238" />
      <path
        d="M453.674 105.987C453.686 108.069 452.009 109.768 449.926 109.779C447.844 109.792 446.145 108.114 446.134 106.032C446.12 103.949 447.799 102.251 449.882 102.239C451.963 102.227 453.66 103.905 453.674 105.987Z"
        fill="#E09642" />
      <path
        d="M450.367 104.557L450.344 107.419L449.682 107.414L449.7 105.083L449.128 105.079L449.133 104.547L450.367 104.557Z"
        fill="white" />
      <path
        d="M323.651 322.83C324.278 318.764 323.22 314.462 320.776 311.149C318.331 307.837 314.533 305.557 310.461 304.957C310.08 304.9 309.658 304.868 309.341 305.086C308.89 305.398 308.871 306.049 308.921 306.594C309.293 310.54 310.942 314.356 313.564 317.328C316.184 320.301 319.763 322.416 323.63 323.279"
        fill="#455A64" />
      <path
        d="M301.717 351.714C305.668 359.851 311.34 365.333 318.368 365.599C319.774 365.649 320.836 364.725 322.177 364.646C322.864 364.692 323.664 365.178 324.427 365.492C324.836 365.649 325.239 365.772 325.599 365.757C332.862 365.368 339.051 360.258 343.222 351.715C349.029 339.749 347.234 326.894 339.221 322.989C338.08 322.427 337.003 322.006 335.942 321.708C334.643 321.366 333.363 321.193 331.956 321.24C329.489 321.288 326.661 321.959 322.848 323.302C322.726 323.35 322.584 323.399 322.46 323.444C315.947 320.569 310.743 320.551 305.7 322.99C297.687 326.892 295.906 339.748 301.717 351.714Z"
        fill="#B7B7B7" />
      <path
        d="M301.858 339.593C301.81 339.614 301.397 338.73 301.193 337.186C300.98 335.652 301.088 333.445 301.912 331.202C302.745 328.963 304.098 327.215 305.257 326.186C306.418 325.147 307.303 324.746 307.328 324.791C307.382 324.874 306.582 325.39 305.53 326.467C304.475 327.536 303.234 329.242 302.432 331.393C301.643 333.547 301.477 335.651 301.582 337.149C301.682 338.652 301.955 339.566 301.858 339.593Z"
        fill="#FAFAFA" />
      <path
        d="M303.33 345.281C303.18 345.315 302.923 344.751 302.755 344.019C302.587 343.287 302.57 342.666 302.72 342.634C302.869 342.598 303.126 343.164 303.295 343.894C303.463 344.626 303.48 345.247 303.33 345.281Z"
        fill="#FAFAFA" />
      <path
        d="M340.21 303.256C340.251 303.358 338.708 303.933 336.451 305.283C335.315 305.949 334.035 306.857 332.696 307.959C331.377 309.087 330.011 310.422 328.732 311.966C327.472 313.524 326.433 315.129 325.589 316.644C324.772 318.175 324.138 319.61 323.707 320.852C322.831 323.334 322.573 324.959 322.464 324.939C322.427 324.933 322.474 324.525 322.588 323.791C322.64 323.421 322.72 322.972 322.857 322.462C322.989 321.949 323.111 321.357 323.337 320.728C323.724 319.452 324.333 317.976 325.137 316.404C325.97 314.848 327.019 313.202 328.304 311.615C329.604 310.041 331.009 308.69 332.37 307.566C333.752 306.466 335.078 305.578 336.252 304.945C336.822 304.6 337.382 304.361 337.856 304.131C338.329 303.895 338.755 303.728 339.106 303.604C339.804 303.345 340.195 303.221 340.21 303.256Z"
        fill="#263238" />
      <path
        d="M438.752 191.897C432.255 182.825 418.453 176.611 407.239 178.28C398.146 179.633 390.108 183.857 385.704 192.881C384.459 195.429 386.054 198.452 388.87 198.788C403.992 200.593 419.336 200.543 434.445 198.633C436.778 198.338 439.552 197.692 439.711 194.807C439.769 193.761 439.363 192.749 438.752 191.897Z"
        fill="#B7B7B7" />
      <path
        d="M402.852 191.449C402.796 191.49 402.333 191.031 401.71 190.177C401.1 189.323 400.343 188.015 399.988 186.411C399.638 184.809 399.655 183.347 399.651 182.304C399.667 181.257 399.716 180.611 399.792 180.608C399.867 180.605 399.957 181.249 400.043 182.29C400.145 183.326 400.196 184.769 400.528 186.288C400.864 187.808 401.525 189.071 402.039 189.963C402.564 190.853 402.919 191.397 402.852 191.449Z"
        fill="#263238" />
      <path
        d="M412.487 191.002C412.321 190.985 412.56 188.423 412.222 185.295C411.903 182.164 411.136 179.709 411.297 179.656C411.423 179.601 412.446 182.03 412.774 185.237C413.119 188.44 412.624 191.03 412.487 191.002Z"
        fill="#263238" />
      <path
        d="M422.44 189.535C422.285 189.468 423.034 187.748 423.216 185.492C423.424 183.239 422.985 181.417 423.148 181.377C423.274 181.32 423.984 183.165 423.769 185.54C423.571 187.916 422.555 189.612 422.44 189.535Z"
        fill="#263238" />
      <g opacity="0.3">
        <g opacity="0.3">
          <path opacity="0.3"
            d="M410.717 178.709C410.747 178.761 410.772 178.818 410.803 178.869C410.804 178.866 410.805 178.864 410.807 178.862L410.717 178.709Z"
            fill="black" />
        </g>
      </g>
      <g opacity="0.3">
        <g opacity="0.3">
          <path opacity="0.3"
            d="M410.803 178.869C408.91 182.114 409.146 186.848 412.397 190.27C413.316 186.549 412.775 182.162 410.803 178.869Z"
            fill="black" />
        </g>
      </g>
      <g opacity="0.3">
        <g opacity="0.3">
          <path opacity="0.3"
            d="M401.546 189.847C400.513 187.988 399.892 185.901 399.741 183.778C399.672 182.839 399.677 181.865 399.326 180.996C398.222 182.375 397.653 184.173 397.785 185.934C397.923 187.785 398.825 189.566 400.237 190.772C400.457 190.959 400.697 191.138 400.979 191.198C401.261 191.257 401.594 191.167 401.74 190.918C401.929 190.589 401.73 190.179 401.546 189.847Z"
            fill="black" />
        </g>
      </g>
      <g opacity="0.3">
        <g opacity="0.3">
          <path opacity="0.3"
            d="M423.308 182.219C423.248 181.858 423.187 181.486 422.992 181.176C422.799 180.864 422.441 180.626 422.081 180.687C421.579 180.771 421.337 181.336 421.187 181.822C420.518 183.97 419.915 186.257 420.448 188.443C420.572 188.95 420.894 189.54 421.415 189.504C421.813 189.476 422.075 189.087 422.256 188.732C423.369 186.554 423.567 184.651 423.308 182.219Z"
            fill="black" />
        </g>
      </g>
      <path d="M306.886 244.036V250.275H305.727V245.007H304.409V244.036H306.886Z" fill="#263238" />
      <path
        d="M309.554 249.597C309.554 249.794 309.509 249.954 309.35 250.365L308.894 251.621H308.171L308.527 250.257C308.279 250.151 308.109 249.919 308.109 249.597C308.109 249.152 308.422 248.858 308.83 248.858C309.25 248.858 309.554 249.16 309.554 249.597Z"
        fill="#263238" />
      <path
        d="M314.841 248.359C314.841 249.456 314.047 250.364 312.372 250.364C311.489 250.364 310.599 250.097 310.028 249.643L310.518 248.742C310.972 249.116 311.65 249.357 312.354 249.357C313.182 249.357 313.672 248.992 313.672 248.404C313.672 247.807 313.291 247.432 311.998 247.432H310.492L310.812 244.037H314.475V245.008H311.792L311.658 246.452H312.255C314.101 246.452 314.841 247.253 314.841 248.359Z"
        fill="#263238" />
      <path
        d="M315.51 247.155C315.51 245.105 316.635 243.946 318.114 243.946C319.602 243.946 320.726 245.105 320.726 247.155C320.726 249.206 319.602 250.364 318.114 250.364C316.635 250.364 315.51 249.206 315.51 247.155ZM319.559 247.155C319.559 245.649 318.969 244.954 318.115 244.954C317.268 244.954 316.679 245.649 316.679 247.155C316.679 248.662 317.268 249.357 318.115 249.357C318.969 249.357 319.559 248.662 319.559 247.155Z"
        fill="#263238" />
      <path
        d="M346.518 258.226C346.518 258.38 335.074 258.503 320.961 258.503C306.844 258.503 295.404 258.38 295.404 258.226C295.404 258.073 306.844 257.95 320.961 257.95C335.074 257.95 346.518 258.073 346.518 258.226Z"
        fill="#263238" />
      <path
        d="M319.219 262.387C319.219 262.54 313.907 262.664 307.354 262.664C300.799 262.664 295.488 262.54 295.488 262.387C295.488 262.233 300.799 262.11 307.354 262.11C313.906 262.109 319.219 262.232 319.219 262.387Z"
        fill="#263238" />
      <path
        d="M398.804 223.786V224.766H394.205V223.99L396.683 221.638C397.287 221.059 397.395 220.693 397.395 220.345C397.395 219.775 397.004 219.445 396.237 219.445C395.631 219.445 395.123 219.65 394.775 220.096L393.963 219.471C394.444 218.821 395.31 218.438 396.335 218.438C397.688 218.438 398.563 219.124 398.563 220.229C398.563 220.835 398.394 221.389 397.53 222.199L395.862 223.786H398.804Z"
        fill="#263238" />
      <path
        d="M400.991 224.089C400.991 224.286 400.946 224.445 400.786 224.856L400.331 226.113H399.608L399.964 224.749C399.716 224.642 399.546 224.41 399.546 224.089C399.546 223.643 399.859 223.35 400.267 223.35C400.688 223.35 400.991 223.652 400.991 224.089Z"
        fill="#263238" />
      <path
        d="M406.349 223.786V224.766H401.749V223.99L404.227 221.638C404.832 221.059 404.94 220.693 404.94 220.345C404.94 219.775 404.549 219.445 403.782 219.445C403.176 219.445 402.668 219.65 402.32 220.096L401.508 219.471C401.989 218.821 402.855 218.438 403.879 218.438C405.234 218.438 406.107 219.124 406.107 220.229C406.107 220.835 405.938 221.389 405.074 222.199L403.407 223.786H406.349Z"
        fill="#263238" />
      <path
        d="M411.558 222.85C411.558 223.946 410.765 224.855 409.09 224.855C408.207 224.855 407.316 224.588 406.746 224.134L407.235 223.233C407.69 223.607 408.367 223.848 409.072 223.848C409.9 223.848 410.39 223.483 410.39 222.894C410.39 222.297 410.008 221.923 408.714 221.923H407.21L407.53 218.528H411.192V219.499H408.51L408.376 220.943H408.973C410.818 220.943 411.558 221.744 411.558 222.85Z"
        fill="#263238" />
      <path
        d="M436.073 232.718C436.073 232.871 424.63 232.995 410.516 232.995C396.399 232.995 384.958 232.871 384.958 232.718C384.958 232.565 396.399 232.441 410.516 232.441C424.63 232.441 436.073 232.565 436.073 232.718Z"
        fill="#263238" />
      <path
        d="M408.774 236.878C408.774 237.032 403.461 237.155 396.909 237.155C390.354 237.155 385.042 237.032 385.042 236.878C385.042 236.725 390.354 236.601 396.909 236.601C403.46 236.601 408.774 236.725 408.774 236.878Z"
        fill="#263238" />
      <path
        d="M302.688 376.646C302.688 374.596 303.812 373.437 305.291 373.437C306.78 373.437 307.903 374.596 307.903 376.646C307.903 378.698 306.78 379.857 305.291 379.857C303.812 379.857 302.688 378.698 302.688 376.646ZM306.736 376.646C306.736 375.14 306.147 374.446 305.292 374.446C304.445 374.446 303.857 375.14 303.857 376.646C303.857 378.152 304.445 378.847 305.292 378.847C306.147 378.848 306.736 378.152 306.736 376.646Z"
        fill="#263238" />
      <path
        d="M310.011 379.088C310.011 379.286 309.967 379.445 309.807 379.857L309.352 381.112H308.628L308.985 379.749C308.737 379.643 308.566 379.412 308.566 379.089C308.566 378.644 308.879 378.351 309.288 378.351C309.708 378.35 310.011 378.652 310.011 379.088Z"
        fill="#263238" />
      <path
        d="M315.298 377.85C315.298 378.946 314.505 379.857 312.83 379.857C311.947 379.857 311.056 379.588 310.486 379.133L310.975 378.233C311.43 378.607 312.107 378.847 312.811 378.847C313.64 378.847 314.13 378.483 314.13 377.893C314.13 377.295 313.748 376.922 312.454 376.922H310.949L311.27 373.527H314.932V374.498H312.25L312.116 375.941H312.713C314.559 375.942 315.298 376.744 315.298 377.85Z"
        fill="#263238" />
      <path
        d="M315.969 376.646C315.969 374.596 317.093 373.437 318.572 373.437C320.061 373.437 321.184 374.596 321.184 376.646C321.184 378.698 320.061 379.857 318.572 379.857C317.093 379.857 315.969 378.698 315.969 376.646ZM320.017 376.646C320.017 375.14 319.428 374.446 318.573 374.446C317.726 374.446 317.138 375.14 317.138 376.646C317.138 378.152 317.726 378.847 318.573 378.847C319.428 378.848 320.017 378.152 320.017 376.646Z"
        fill="#263238" />
      <path
        d="M344.477 387.717C344.477 387.872 333.035 387.995 318.921 387.995C304.804 387.995 293.363 387.872 293.363 387.717C293.363 387.563 304.804 387.44 318.921 387.44C333.035 387.441 344.477 387.564 344.477 387.717Z"
        fill="#263238" />
      <path
        d="M317.179 391.878C317.179 392.033 311.867 392.156 305.315 392.156C298.759 392.156 293.448 392.033 293.448 391.878C293.448 391.724 298.759 391.601 305.315 391.601C311.866 391.601 317.179 391.724 317.179 391.878Z"
        fill="#263238" />
      <path d="M392.298 339.765V346.004H391.138V340.736H389.821V339.765H392.298Z" fill="#263238" />
      <path
        d="M394.965 345.328C394.965 345.526 394.921 345.684 394.761 346.096L394.306 347.351H393.582L393.939 345.988C393.691 345.882 393.52 345.651 393.52 345.329C393.52 344.883 393.833 344.59 394.242 344.59C394.662 344.588 394.965 344.891 394.965 345.328Z"
        fill="#263238" />
      <path
        d="M395.608 342.886C395.608 340.835 396.733 339.677 398.212 339.677C399.7 339.677 400.824 340.835 400.824 342.886C400.824 344.937 399.7 346.096 398.212 346.096C396.732 346.095 395.608 344.936 395.608 342.886ZM399.655 342.886C399.655 341.379 399.066 340.685 398.212 340.685C397.365 340.685 396.776 341.379 396.776 342.886C396.776 344.391 397.365 345.086 398.212 345.086C399.067 345.086 399.655 344.391 399.655 342.886Z"
        fill="#263238" />
      <path
        d="M401.609 342.886C401.609 340.835 402.734 339.677 404.212 339.677C405.701 339.677 406.825 340.835 406.825 342.886C406.825 344.937 405.701 346.096 404.212 346.096C402.734 346.095 401.609 344.936 401.609 342.886ZM405.657 342.886C405.657 341.379 405.068 340.685 404.214 340.685C403.367 340.685 402.778 341.379 402.778 342.886C402.778 344.391 403.367 345.086 404.214 345.086C405.068 345.086 405.657 344.391 405.657 342.886Z"
        fill="#263238" />
      <path
        d="M431.93 353.956C431.93 354.11 420.486 354.233 406.372 354.233C392.255 354.233 380.815 354.11 380.815 353.956C380.815 353.801 392.255 353.678 406.372 353.678C420.486 353.678 431.93 353.802 431.93 353.956Z"
        fill="#263238" />
      <path
        d="M404.631 358.115C404.631 358.27 399.318 358.394 392.766 358.394C386.211 358.394 380.899 358.27 380.899 358.115C380.899 357.962 386.211 357.838 392.766 357.838C399.318 357.838 404.631 357.963 404.631 358.115Z"
        fill="#263238" />
      <path
        d="M393.429 115.472C393.429 115.625 381.095 115.748 365.885 115.748C350.67 115.748 338.341 115.625 338.341 115.472C338.341 115.318 350.67 115.195 365.885 115.195C381.095 115.195 393.429 115.318 393.429 115.472Z"
        fill="#B7B7B7" />
      <path
        d="M34.6832 445.87C34.6832 445.87 29.1951 445.87 27.7725 451.765C26.3489 457.659 26.1467 459.692 26.1467 459.692C26.1467 459.692 19.901 465.304 26.1467 466.808C32.3913 468.31 34.6832 459.897 34.6832 459.897L35.645 445.87H34.6832Z"
        fill="#FFBE9D" />
      <path
        d="M97.2251 338.342C97.2251 338.342 116.742 272.813 118.73 269.987C122.01 265.32 153.597 251.277 153.597 251.277L162.067 233.993L214.581 225.6L227.586 242.348L264.155 269.138L261.604 361.836L260.247 426.562L267.166 507.357L101.078 507.102L108.592 490.086L116.479 343.134L97.2251 338.342Z"
        fill="#89BC4F" />
      <path
        d="M119.732 329.508C119.713 329.509 119.69 329.327 119.666 328.98C119.644 328.569 119.618 328.068 119.585 327.461C119.524 326.142 119.469 324.232 119.425 321.872C119.338 317.151 119.334 310.626 119.539 303.424C119.747 296.22 120.125 289.705 120.483 284.997C120.661 282.643 120.826 280.74 120.962 279.428C121.029 278.824 121.084 278.325 121.129 277.917C121.174 277.572 121.207 277.391 121.226 277.392C121.245 277.394 121.249 277.576 121.241 277.925C121.224 278.336 121.202 278.836 121.177 279.444C121.1 280.847 120.998 282.731 120.874 285.023C120.616 289.735 120.301 296.244 120.093 303.441C119.888 310.637 119.83 317.153 119.818 321.87C119.811 324.166 119.805 326.053 119.801 327.458C119.791 328.065 119.784 328.566 119.778 328.978C119.766 329.325 119.751 329.508 119.732 329.508Z"
        fill="#263238" />
      <g opacity="0.3">
        <g opacity="0.3">
          <path opacity="0.3"
            d="M157.35 310.666C157.315 309.894 157.549 309.202 157.962 308.616C159.206 306.864 162.072 306.079 164.161 307.078C166.947 308.409 168.328 311.599 168.888 314.635C169.499 317.958 169.409 321.379 170.036 324.699C170.661 328.018 172.182 331.406 175.091 333.123C178.698 335.251 183.433 334.287 187.221 336.072C192.864 338.729 194.169 346.062 194.452 352.291C194.988 364.086 194.477 375.902 193.967 387.697C192.88 412.815 191.793 437.933 190.707 463.052L187.743 500.852L172.459 507.348L152.248 374.539L157.35 310.666Z"
            fill="black" />
        </g>
      </g>
      <path
        d="M161.706 299.922C161.713 299.937 161.584 300.025 161.309 300.135C161.032 300.24 160.587 300.335 160.019 300.263C158.917 300.141 157.234 299.219 156.548 297.229C156.217 296.261 156.136 295.126 156.24 293.953C156.341 292.774 156.605 291.552 156.852 290.275C157.364 287.707 157.925 284.897 158.513 281.948C159.706 276.044 160.817 270.704 161.648 266.845C162.06 264.989 162.4 263.453 162.661 262.28C162.912 261.205 163.069 260.613 163.106 260.62C163.144 260.629 163.058 261.234 162.873 262.323C162.657 263.504 162.374 265.053 162.032 266.921C161.299 270.801 160.249 276.153 159.056 282.059C158.453 285.005 157.878 287.81 157.353 290.376C156.802 292.912 156.312 295.258 156.921 297.108C157.495 298.946 159.035 299.879 160.052 300.05C161.121 300.238 161.691 299.85 161.706 299.922Z"
        fill="#263238" />
      <path
        d="M167.108 275.271C167.11 275.326 166.673 275.322 165.95 275.549C165.236 275.772 164.219 276.3 163.387 277.355C162.558 278.379 161.983 280.05 162.596 281.717C163.149 283.342 164.755 284.893 166.76 285.07C168.77 285.215 170.6 283.938 171.404 282.419C172.273 280.872 171.97 279.129 171.314 277.988C170.659 276.812 169.739 276.13 169.069 275.796C168.39 275.459 167.959 275.392 167.969 275.339C167.973 275.32 168.08 275.326 168.285 275.353C168.491 275.378 168.793 275.449 169.158 275.602C169.887 275.887 170.905 276.555 171.653 277.79C172.018 278.404 172.315 279.157 172.392 280.011C172.465 280.86 172.313 281.807 171.855 282.656C170.987 284.347 169.001 285.777 166.716 285.622C164.435 285.412 162.702 283.686 162.112 281.879C161.795 280.968 161.795 280.009 162 279.184C162.212 278.353 162.625 277.656 163.082 277.109C164.017 276.007 165.127 275.508 165.892 275.34C166.278 275.248 166.586 275.226 166.794 275.234C167 275.241 167.108 275.252 167.108 275.271Z"
        fill="#263238" />
      <path d="M184.974 343.01L89.0398 325.654L44.2667 335.474L144.473 353.517L184.974 343.01Z" fill="#E8505B" />
      <g opacity="0.6">
        <g opacity="0.6">
          <path opacity="0.6" d="M184.974 343.01L89.0398 325.654L44.2667 335.474L144.473 353.517L184.974 343.01Z"
            fill="black" />
        </g>
      </g>
      <path
        d="M123.636 384.844C124.937 367.163 129.786 322.257 133.423 304.904C134.513 299.712 135.765 294.398 138.787 290.037C141.808 285.675 147.02 282.43 152.264 283.237C156.945 283.958 160.702 287.756 162.604 292.094C164.505 296.431 165.216 301.275 165.017 306.007C164.114 327.455 162.261 351.484 162.278 371.37"
        fill="#455A64" />
      <path
        d="M156.124 342.738C156.143 342.823 154.761 343.178 152.566 343.866C150.37 344.549 147.371 345.605 144.178 347.05C140.985 348.5 138.216 350.061 136.255 351.263C134.293 352.463 133.115 353.268 133.064 353.196C133.041 353.166 133.311 352.929 133.819 352.529C134.325 352.124 135.084 351.577 136.044 350.931C137.962 349.638 140.729 348.009 143.95 346.545C147.171 345.086 150.22 344.081 152.456 343.488C153.575 343.192 154.486 342.981 155.125 342.867C155.761 342.749 156.116 342.702 156.124 342.738Z"
        fill="#263238" />
      <path
        d="M157.719 322.326C157.738 322.416 156.277 322.737 153.979 323.447C151.682 324.154 148.561 325.318 145.315 327.018C142.071 328.729 139.342 330.638 137.458 332.131C135.57 333.62 134.479 334.643 134.415 334.578C134.388 334.549 134.635 334.268 135.107 333.781C135.573 333.289 136.289 332.617 137.209 331.829C139.047 330.246 141.774 328.259 145.057 326.529C148.342 324.806 151.525 323.686 153.869 323.07C155.042 322.76 156.002 322.551 156.671 322.444C157.34 322.331 157.712 322.288 157.719 322.326Z"
        fill="#263238" />
      <path
        d="M155.562 305.9C155.565 305.995 154.425 306.048 152.627 306.377C150.832 306.702 148.385 307.385 145.893 308.622C143.402 309.868 141.383 311.408 140.042 312.644C138.695 313.879 137.967 314.759 137.893 314.7C137.864 314.676 138.019 314.435 138.327 314.017C138.63 313.596 139.121 313.025 139.77 312.362C141.064 311.031 143.095 309.4 145.645 308.126C148.198 306.859 150.724 306.221 152.565 305.989C153.486 305.872 154.237 305.823 154.757 305.835C155.275 305.84 155.561 305.862 155.562 305.9Z"
        fill="#263238" />
      <path
        d="M143.651 357.06C143.651 357.107 143.668 357.137 143.668 357.153V418.54C143.668 421.232 141.501 424.016 137.51 426.119C133.534 428.221 127.718 429.661 120.462 429.677H120.37C105.842 429.65 97.1644 423.938 97.1644 418.54V357.153C97.1644 357.137 97.1793 357.107 97.1793 357.06C97.1793 357.032 97.1644 356.986 97.1644 356.939C97.1953 350.935 101.605 344.67 106.045 338.482C109.029 334.35 109.741 328.396 109.88 324.899C109.895 324.481 109.911 324.109 109.911 323.769H109.51C107.591 323.769 106.045 322.438 106.045 320.797V318.201C106.045 316.543 107.591 315.213 109.51 315.213H131.322C132.761 315.213 133.999 315.957 134.524 317.023C134.694 317.397 134.786 317.782 134.786 318.2V320.796C134.786 322.437 133.24 323.768 131.322 323.768H130.92C130.92 324.107 130.936 324.48 130.95 324.898C131.089 328.394 131.803 334.349 134.786 338.481C139.228 344.668 143.636 350.934 143.668 356.938C143.668 356.986 143.651 357.032 143.651 357.06Z"
        fill="#FAFAFA" />
      <path
        d="M143.651 357.06C143.651 357.06 143.656 356.851 143.617 356.433C143.604 356.017 143.527 355.399 143.391 354.597C143.088 352.998 142.344 350.679 140.853 347.94C139.379 345.188 137.191 342.04 134.571 338.415C133.256 336.571 132.346 334.291 131.725 331.813C131.108 329.325 130.787 326.624 130.739 323.769L130.736 323.58L130.92 323.588C131.742 323.619 132.541 323.489 133.237 323.055C133.922 322.639 134.461 321.937 134.57 321.128C134.62 320.309 134.581 319.382 134.591 318.498C134.661 317.617 134.324 316.788 133.645 316.23C132.98 315.669 132.089 315.39 131.18 315.417C130.238 315.42 129.284 315.421 128.319 315.423C126.389 315.426 124.417 315.428 122.402 315.431C118.374 315.437 114.181 315.443 109.838 315.449C108.782 315.395 107.735 315.712 107.011 316.457C106.665 316.828 106.403 317.287 106.324 317.789C106.251 318.264 106.301 318.875 106.287 319.421C106.296 319.97 106.27 320.576 106.306 321.082C106.373 321.59 106.605 322.075 106.963 322.46C107.687 323.252 108.782 323.59 109.911 323.52L110.164 323.503L110.16 323.768C110.126 326.227 109.888 328.721 109.343 331.207C108.79 333.681 107.929 336.179 106.432 338.372C104.932 340.504 103.385 342.627 101.968 344.882C100.558 347.128 99.2201 349.486 98.3465 352.045C97.9124 353.321 97.5932 354.647 97.4815 355.998C97.4113 357.337 97.4432 358.756 97.4368 360.144C97.4368 362.939 97.4379 365.763 97.4389 368.611C97.4389 374.309 97.44 380.111 97.4411 385.989C97.4389 396.328 97.4368 406.422 97.4347 416.172C97.4602 417.382 97.3474 418.635 97.5996 419.731C97.8475 420.861 98.5136 421.863 99.2754 422.731C100.838 424.47 102.888 425.712 105.007 426.635C107.138 427.557 109.373 428.165 111.606 428.603C113.839 429.056 116.093 429.261 118.317 429.364C122.767 429.557 127.144 429.192 131.238 428.189C133.278 427.669 135.253 426.996 137.071 426.073C138.882 425.157 140.565 424.003 141.818 422.507C142.447 421.765 142.928 420.917 143.214 420.019C143.507 419.124 143.435 418.172 143.445 417.2C143.448 415.278 143.452 413.392 143.454 411.543C143.46 407.846 143.465 404.298 143.472 400.911C143.509 387.374 143.539 376.417 143.56 368.824C143.585 361.25 143.651 357.06 143.651 357.06C143.676 357.059 143.69 357.321 143.695 357.834C143.702 358.363 143.711 359.118 143.723 360.101C143.736 362.114 143.753 365.05 143.775 368.826C143.796 376.42 143.826 387.377 143.863 400.913C143.869 404.301 143.875 407.849 143.881 411.546C143.884 413.394 143.887 415.281 143.89 417.202C143.889 417.685 143.887 418.169 143.886 418.655C143.884 419.163 143.781 419.663 143.647 420.152C143.341 421.121 142.828 422.024 142.172 422.801C140.862 424.372 139.133 425.555 137.285 426.499C135.43 427.445 133.424 428.131 131.356 428.662C127.208 429.69 122.791 430.062 118.297 429.878C116.049 429.777 113.772 429.573 111.508 429.116C109.244 428.678 106.974 428.062 104.796 427.124C102.63 426.181 100.52 424.917 98.8732 423.09C98.071 422.175 97.3538 421.107 97.075 419.862C96.7942 418.596 96.924 417.391 96.892 416.175C96.891 406.426 96.8888 396.331 96.8867 385.993C96.8878 380.114 96.8878 374.312 96.8888 368.614C96.8888 365.766 96.8899 362.942 96.891 360.147C96.8995 358.739 96.8654 357.381 96.941 355.957C97.058 354.551 97.3889 353.182 97.8358 351.872C98.7349 349.246 100.094 346.863 101.518 344.598C102.947 342.33 104.51 340.192 106.001 338.076C107.448 335.969 108.297 333.53 108.845 331.098C109.383 328.658 109.625 326.184 109.662 323.768L109.911 324.016C108.742 324.092 107.425 323.717 106.6 322.791C106.182 322.339 105.901 321.756 105.821 321.14C105.779 320.516 105.81 319.995 105.802 319.421C105.82 318.847 105.76 318.334 105.851 317.706C105.948 317.103 106.261 316.557 106.667 316.126C107.495 315.261 108.735 314.915 109.838 314.978C114.181 314.983 118.374 314.989 122.402 314.994C124.417 314.998 126.389 315.001 128.319 315.005C129.284 315.006 130.238 315.008 131.18 315.009C132.154 314.981 133.163 315.288 133.904 315.925C134.673 316.536 135.073 317.582 134.983 318.499C134.968 319.407 135.009 320.257 134.949 321.181C134.816 322.123 134.194 322.914 133.432 323.372C132.672 323.851 131.742 323.987 130.92 323.95L131.101 323.769C131.188 329.381 132.275 334.578 134.803 338.251C137.398 341.887 139.572 345.067 141.026 347.846C142.498 350.617 143.217 352.964 143.49 354.578C143.611 355.391 143.672 356.011 143.668 356.429C143.691 356.851 143.671 357.061 143.651 357.06Z"
        fill="#263238" />
      <path
        d="M129.686 323.62C129.686 323.774 125.338 323.898 119.976 323.898C114.612 323.898 110.264 323.774 110.264 323.62C110.264 323.467 114.612 323.342 119.976 323.342C125.338 323.343 129.686 323.468 129.686 323.62Z"
        fill="#263238" />
      <path
        d="M141.709 365.263C139.745 363.989 137.162 364.549 135.055 365.545C132.947 366.54 130.959 367.942 128.672 368.309C125.977 368.743 123.267 367.669 120.871 366.313C118.475 364.958 116.216 363.291 113.636 362.371C108.696 360.61 102.85 361.987 99.1233 365.79V418.504C99.1233 418.504 102.021 427.498 122.407 426.085C142.793 424.672 141.186 415.678 141.186 415.678L141.709 365.263Z"
        fill="#E8505B" />
      <path
        d="M87.7001 329.384C88.2992 325.502 87.2884 321.394 84.955 318.234C82.6227 315.072 78.9966 312.895 75.1098 312.322C74.7459 312.268 74.3427 312.238 74.0405 312.446C73.6096 312.743 73.5915 313.363 73.6404 313.886C73.9948 317.653 75.5705 321.294 78.072 324.132C80.5735 326.969 83.99 328.988 87.6821 329.811"
        fill="#455A64" />
      <path
        d="M66.7649 356.953C70.5357 364.72 75.9504 369.954 82.6589 370.206C84.0006 370.253 85.0146 369.372 86.2957 369.297C86.9511 369.342 87.7129 369.805 88.4428 370.105C88.8323 370.254 89.2185 370.372 89.5611 370.359C96.4941 369.985 102.4 365.107 106.382 356.953C111.925 345.532 110.212 333.261 102.563 329.532C101.474 328.996 100.446 328.595 99.4329 328.31C98.1955 327.982 96.9729 327.817 95.6291 327.863C93.2734 327.909 90.5751 328.55 86.9362 329.831C86.8192 329.877 86.683 329.923 86.5638 329.968C80.3479 327.224 75.3822 327.206 70.5676 329.534C62.9175 333.262 61.2172 345.532 66.7649 356.953Z"
        fill="#E8505B" />
      <path
        d="M66.899 345.383C66.85 345.405 66.4542 344.563 66.2553 343.089C66.0499 341.622 66.152 339.513 66.9383 337.371C67.7353 335.23 69.0291 333.563 70.1378 332.582C71.2475 331.589 72.0955 331.21 72.12 331.257C72.1743 331.34 71.4125 331.835 70.4102 332.863C69.4047 333.884 68.2226 335.512 67.4586 337.563C66.7053 339.617 66.5457 341.622 66.6447 343.053C66.7383 344.485 66.9926 345.357 66.899 345.383Z"
        fill="#FAFAFA" />
      <path
        d="M68.3035 350.814C68.1545 350.848 67.9034 350.309 67.7417 349.612C67.581 348.914 67.5714 348.321 67.7204 348.285C67.8693 348.252 68.1204 348.791 68.2822 349.488C68.4428 350.185 68.4524 350.781 68.3035 350.814Z"
        fill="#FAFAFA" />
      <path
        d="M103.506 310.7C103.546 310.799 102.075 311.351 99.9213 312.642C98.8403 313.279 97.6198 314.145 96.342 315.197C95.0833 316.272 93.7788 317.549 92.5605 319.02C91.3582 320.506 90.3655 322.038 89.56 323.485C88.7822 324.946 88.1736 326.313 87.764 327.498C86.9245 329.866 86.6745 331.417 86.5691 331.396C86.5308 331.389 86.5723 331 86.6819 330.298C86.7309 329.945 86.8053 329.518 86.9362 329.029C87.0618 328.541 87.1777 327.973 87.3927 327.373C87.7619 326.153 88.3418 324.745 89.11 323.242C89.9048 321.757 90.9049 320.184 92.1317 318.668C93.3745 317.167 94.7162 315.876 96.0164 314.801C97.3368 313.752 98.603 312.904 99.7255 312.301C100.27 311.971 100.803 311.747 101.258 311.526C101.711 311.301 102.115 311.143 102.451 311.026C103.12 310.782 103.493 310.664 103.506 310.7Z"
        fill="#263238" />
      <path
        d="M44.2656 335.474L32.2073 487.551L144.57 514.712C144.57 514.712 183.76 501.426 184.293 500.516C184.827 499.61 184.974 343.01 184.974 343.01L144.473 353.517L44.2656 335.474Z"
        fill="#E09642" />
      <g opacity="0.4">
        <g opacity="0.4">
          <path opacity="0.4"
            d="M44.2656 335.474L32.2073 487.551L144.57 514.712C144.57 514.712 183.76 501.426 184.293 500.516C184.827 499.61 184.974 343.01 184.974 343.01L144.473 353.517L44.2656 335.474Z"
            fill="#E09642" />
        </g>
      </g>
      <path
        d="M174.065 120.502C174.065 120.502 165.946 116.009 157.79 114.963C159.465 113.736 160.359 113.147 162.212 112.308C166.385 113.138 170.613 114.197 174.896 116.573L174.065 120.502Z"
        fill="#FAFAFA" />
      <path
        d="M244.868 266.892C244.868 266.892 229.463 284.498 231.165 309.004C231.401 312.401 231.568 317.139 231.986 320.524C234.583 341.543 238.601 361.054 238.601 361.054H240.067L293.789 347.79C293.789 347.79 285.695 301.15 283.836 294.962C277.883 275.141 257.465 264.236 257.465 264.236L244.868 266.892Z"
        fill="#89BC4F" />
      <path
        d="M184.293 500.516C184.293 500.516 184.276 500.248 184.27 499.724C184.267 499.183 184.261 498.408 184.255 497.392C184.252 495.326 184.249 492.3 184.245 488.397C184.259 480.556 184.279 469.2 184.305 455.072C184.404 426.786 184.542 387.414 184.699 343.011L185.043 343.278C178.509 344.974 171.606 346.764 164.606 348.58C157.734 350.363 150.954 352.121 144.542 353.785L144.748 353.515C145.021 375.777 144.948 396.778 144.842 415.756C144.728 434.73 144.627 451.685 144.542 465.864C144.485 480.036 144.489 491.427 144.524 499.275C144.54 503.189 144.553 506.22 144.562 508.294C144.562 509.312 144.561 510.09 144.561 510.632C144.558 511.157 144.544 511.427 144.544 511.427C144.544 511.427 144.523 511.158 144.509 510.632C144.498 510.091 144.481 509.313 144.458 508.296C144.427 506.223 144.382 503.19 144.323 499.276C144.225 491.429 144.165 480.036 144.173 465.863C144.223 451.685 144.284 434.728 144.352 415.754C144.426 396.776 144.478 375.778 144.198 353.523L144.195 353.307L144.404 353.252C150.816 351.588 157.594 349.828 164.467 348.044C171.468 346.229 178.371 344.439 184.905 342.745L185.251 342.656L185.249 343.013C185.021 387.416 184.819 426.787 184.674 455.074C184.577 469.201 184.5 480.557 184.446 488.398C184.408 492.301 184.378 495.326 184.358 497.392C184.342 498.408 184.332 499.185 184.323 499.724C184.313 500.248 184.293 500.516 184.293 500.516Z"
        fill="#263238" />
      <path
        d="M148.293 253.692C148.301 253.696 148.259 253.816 148.166 254.043C148.061 254.297 147.924 254.628 147.751 255.045C147.464 255.954 147.037 257.3 146.799 259.1C146.267 262.681 146.129 267.977 146.811 274.425L146.432 274.351C148.007 271.562 150.381 268.877 153.321 266.499C156.251 264.099 159.67 261.898 163.511 260.037L163.686 259.953L163.817 260.107C166.057 262.714 168.428 265.431 170.936 268.181C173.436 270.93 176.124 273.699 179.328 275.925C180.83 276.97 182.43 277.84 184.104 278.452C184.941 278.747 185.797 278.995 186.652 279.14C187.513 279.273 188.379 279.306 189.233 279.236C192.69 278.919 195.631 276.939 198.046 274.851L198.026 274.87C206.935 265.371 214.584 257.215 220.035 251.403C222.743 248.544 224.904 246.264 226.415 244.669C227.145 243.911 227.717 243.317 228.132 242.889C228.315 242.705 228.464 242.557 228.583 242.437C228.687 242.338 228.742 242.289 228.747 242.294C228.754 242.299 228.709 242.358 228.616 242.468C228.506 242.595 228.367 242.754 228.198 242.95C227.798 243.393 227.247 244.006 226.543 244.787C225.057 246.406 222.935 248.723 220.274 251.625C214.859 257.47 207.26 265.673 198.41 275.227L198.401 275.238L198.39 275.246C197.15 276.319 195.811 277.357 194.291 278.18C192.785 279.013 191.081 279.617 189.281 279.783C188.382 279.858 187.468 279.826 186.564 279.686C185.659 279.531 184.783 279.277 183.916 278.971C182.189 278.341 180.545 277.448 179.013 276.381C175.749 274.112 173.036 271.308 170.533 268.549C168.022 265.787 165.657 263.064 163.42 260.444L163.726 260.513C159.942 262.331 156.523 264.509 153.62 266.864C150.701 269.203 148.349 271.832 146.786 274.548L146.469 275.099L146.409 274.474C145.773 267.978 145.973 262.668 146.578 259.066C146.852 257.258 147.317 255.907 147.642 255.005C147.836 254.565 148.006 254.239 148.113 254.018C148.224 253.797 148.284 253.687 148.293 253.692Z"
        fill="#263238" />
      <g opacity="0.3">
        <g opacity="0.3">
          <path opacity="0.3"
            d="M149.078 270.92C148.59 271.731 149.015 273.613 149.864 274.029C150.713 274.445 151.768 274.14 152.509 273.555C153.251 272.968 153.758 272.146 154.298 271.369C155.572 269.54 157.106 267.893 158.841 266.497C160.555 265.116 162.911 263.945 164.878 264.93C166.186 265.585 166.898 267 167.54 268.316C170.204 273.778 173.412 279.336 178.633 282.446C183.879 285.572 190.571 285.706 196.328 283.67C202.085 281.633 206.978 277.616 210.925 272.956C214.873 268.297 217.962 262.985 221.019 257.699C223.425 253.538 225.867 249.254 226.616 244.507C225.949 244.88 224.402 247.268 223.735 247.642C223.735 247.642 198.94 274.958 196.604 276.359C194.268 277.761 187.847 287.208 169.64 266.805L163.619 260.274C163.619 260.275 152.154 265.824 149.078 270.92Z"
            fill="black" />
        </g>
      </g>
      <path d="M215.539 329.845L188.268 325.666L187.006 333.899L214.277 338.078L215.539 329.845Z" fill="white" />
      <path
        d="M289.283 348.82L246.677 359.106L251.591 399.259L170.093 460.465C166.831 460.921 163.496 461.447 161.643 461.909C157.185 463.024 149.314 474.207 147.085 475.32L131.204 487.578C131.204 487.578 129.81 493.151 137.055 492.036C144.3 490.922 152.38 485.349 153.216 485.349C154.051 485.349 156.59 487.047 155.391 490.643C154.324 493.845 149.957 504.813 149.957 504.813L144.57 514.71C144.57 514.71 167.887 515.473 174.411 506.82C178.839 500.947 192.472 484.293 192.472 484.293C192.472 484.293 288.405 437.098 294.163 427.216C301.982 413.801 289.283 348.82 289.283 348.82Z"
        fill="#FFBE9D" />
      <path
        d="M269.66 416.558C269.542 416.55 269.896 414.851 269.468 412.17C269.071 409.527 267.665 405.845 264.602 403.059C261.526 400.289 257.721 399.255 255.05 399.125C252.338 398.969 250.685 399.489 250.666 399.372C250.657 399.342 251.057 399.193 251.811 399.023C252.563 398.85 253.68 398.704 255.067 398.733C257.807 398.766 261.774 399.767 264.973 402.65C268.16 405.545 269.55 409.392 269.856 412.115C270.024 413.492 269.989 414.62 269.893 415.385C269.801 416.15 269.691 416.563 269.66 416.558Z"
        fill="#EB996E" />
      <path
        d="M163.73 499.746C163.801 499.767 163.602 500.793 163.171 502.43C162.73 504.063 162.058 506.332 160.815 508.637C159.578 510.951 157.836 512.695 156.326 513.541C155.575 513.966 154.911 514.208 154.441 514.306C153.971 514.41 153.704 514.415 153.699 514.384C153.671 514.28 154.731 514.119 156.121 513.207C157.51 512.315 159.129 510.613 160.329 508.373C161.536 506.132 162.261 503.915 162.795 502.319C163.321 500.717 163.655 499.724 163.73 499.746Z"
        fill="#EB996E" />
      <path
        d="M175.031 496.033C175.097 496.057 174.814 497.058 174.209 498.626C173.604 500.191 172.656 502.314 171.42 504.563C170.181 506.808 168.894 508.745 167.894 510.093C166.894 511.441 166.2 512.217 166.144 512.173C166.079 512.123 166.661 511.267 167.571 509.87C168.483 508.473 169.707 506.521 170.935 504.296C172.159 502.067 173.154 499.991 173.847 498.471C174.542 496.955 174.955 496.006 175.031 496.033Z"
        fill="#EB996E" />
      <path
        d="M174.722 426.561C174.76 426.558 174.826 427.039 174.912 427.913C175.005 428.788 175.081 430.058 175.124 431.63C175.215 434.772 175.073 439.13 174.387 443.886C173.694 448.642 172.594 452.864 171.615 455.848C171.126 457.344 170.692 458.54 170.355 459.351C170.024 460.166 169.825 460.609 169.789 460.595C169.754 460.582 169.885 460.113 170.153 459.279C170.426 458.448 170.802 457.236 171.24 455.735C172.118 452.734 173.15 448.529 173.838 443.806C174.519 439.085 174.723 434.761 174.732 431.635C174.74 430.07 174.723 428.803 174.697 427.927C174.677 427.05 174.683 426.563 174.722 426.561Z"
        fill="#263238" />
      <path
        d="M151.657 439.339C151.734 439.316 152.22 440.605 153.004 442.688C153.787 444.772 154.882 447.645 156.168 450.786C157.455 453.927 158.687 456.743 159.59 458.779C160.492 460.814 161.05 462.075 160.978 462.11C160.913 462.143 160.23 460.943 159.235 458.946C158.24 456.949 156.946 454.147 155.655 450.994C154.365 447.843 153.325 444.94 152.634 442.818C151.943 440.696 151.588 439.363 151.657 439.339Z"
        fill="#263238" />
      <path
        d="M145.486 466.881C145.49 466.901 145.259 466.967 144.815 467.08C144.312 467.199 143.666 467.352 142.863 467.544C142.016 467.746 140.976 467.976 139.755 468.184C138.537 468.399 137.155 468.685 135.609 468.874C134.066 469.097 132.375 469.333 130.549 469.486C128.727 469.696 126.77 469.786 124.712 469.908C120.594 470.066 116.056 470.042 111.31 469.697C106.564 469.318 102.075 468.654 98.0273 467.873C96.011 467.439 94.0905 467.052 92.3222 466.568C90.54 466.139 88.9035 465.652 87.4129 465.196C85.9137 464.774 84.5911 464.283 83.4197 463.886C82.2439 463.495 81.2512 463.11 80.4447 462.781C79.6808 462.471 79.0647 462.221 78.587 462.028C78.1646 461.849 77.9464 461.747 77.9528 461.729C77.9603 461.712 78.1922 461.779 78.6274 461.923C79.1147 462.092 79.7414 462.309 80.5192 462.579C81.3353 462.876 82.3376 463.23 83.5186 463.591C84.6965 463.959 86.0233 464.423 87.5246 464.821C89.0174 465.251 90.6527 465.715 92.4328 466.124C94.1991 466.587 96.1153 466.953 98.1252 467.371C102.159 468.122 106.629 468.768 111.352 469.144C116.076 469.488 120.592 469.527 124.692 469.397C126.74 469.291 128.691 469.218 130.506 469.028C132.328 468.895 134.015 468.684 135.556 468.487C137.101 468.322 138.482 468.063 139.702 467.879C140.924 467.701 141.968 467.502 142.821 467.332C143.629 467.182 144.284 467.063 144.79 466.97C145.242 466.895 145.482 466.862 145.486 466.881Z"
        fill="#263238" />
      <path
        d="M141.43 448.38C141.357 448.515 139.095 447.427 136.377 445.946C133.659 444.466 131.516 443.16 131.588 443.025C131.661 442.891 133.924 443.98 136.642 445.46C139.359 446.94 141.503 448.246 141.43 448.38Z"
        fill="#263238" />
      <path
        d="M293.787 347.789C293.789 347.796 293.701 347.825 293.526 347.875C293.326 347.929 293.066 347.998 292.741 348.087C292.018 348.271 290.999 348.53 289.69 348.864C286.993 349.531 283.112 350.49 278.247 351.694C268.432 354.077 254.653 357.426 238.663 361.309L238.384 361.376L238.34 361.091C237.217 353.779 235.689 345.889 234.212 337.683C233.241 332.205 232.4 326.832 231.829 321.61C231.262 316.388 230.99 311.323 230.923 306.498C230.861 301.676 231.042 297.07 231.72 292.817C232.388 288.566 233.575 284.686 235.21 281.4C236.877 278.131 238.955 275.484 241.078 273.497C243.21 271.51 245.356 270.152 247.221 269.307C249.09 268.455 250.656 268.113 251.706 267.897C252.238 267.818 252.647 267.779 252.92 267.744C253.194 267.715 253.334 267.703 253.335 267.714C253.336 267.724 253.198 267.752 252.928 267.801C252.631 267.852 252.233 267.921 251.727 268.008C250.69 268.257 249.147 268.63 247.312 269.502C245.482 270.367 243.378 271.736 241.292 273.72C239.214 275.706 237.184 278.338 235.56 281.576C233.969 284.827 232.817 288.672 232.174 292.887C231.522 297.106 231.358 301.684 231.434 306.492C231.515 311.302 231.797 316.346 232.368 321.55C232.945 326.754 233.787 332.115 234.758 337.586C236.232 345.783 237.753 353.684 238.863 361.011L238.539 360.794C254.548 356.987 268.343 353.707 278.169 351.37C283.049 350.232 286.943 349.322 289.648 348.691C290.966 348.393 291.992 348.162 292.721 347.996C293.052 347.927 293.314 347.872 293.515 347.829C293.693 347.795 293.786 347.78 293.787 347.789Z"
        fill="#263238" />
      <path
        d="M159.418 235.225C159.418 235.225 157.268 255.665 164.167 258.847C171.925 262.424 179.655 258.928 184.41 255.892C197.081 247.806 215.92 225.345 215.92 225.345L228.649 241.927C228.649 241.927 196.499 280.565 190.039 280.315C185.826 280.153 179.242 276.024 175.172 273.168C172.931 271.599 170.936 269.716 169.245 267.565L163.685 260.492C156.742 263.919 151.124 268.306 147.236 273.944C147.236 273.944 145.38 259.633 148.711 253.132C152.041 246.632 158.683 235.444 158.683 235.444L159.418 235.225Z"
        fill="#E09642" />
      <path
        d="M198.082 244.542C198.082 244.542 187.087 255.714 180.526 258.374C172.22 261.742 165.984 260.148 165.984 260.148L161.728 223.706L189.924 210.938L198.082 244.542Z"
        fill="#FFBE9D" />
      <path
        d="M197.949 180.122C196.528 189.464 199.612 197.682 204.839 198.476C210.065 199.273 215.456 192.344 216.878 183.004C218.301 173.663 215.214 165.446 209.989 164.65C204.759 163.855 199.371 170.781 197.949 180.122Z"
        fill="#FFC1B7" />
      <path
        d="M139.215 141.244C139.215 141.244 123.552 220.851 141.282 229.579C159.013 238.307 200.383 232.736 206.855 190.528C215.178 136.227 203.972 136.934 203.972 136.934L139.215 141.244Z"
        fill="#F9D1CD" />
      <path
        d="M142.816 175.603C143.197 176.003 145.521 174.282 148.823 174.292C152.12 174.252 154.543 175.952 154.9 175.547C155.077 175.367 154.69 174.646 153.634 173.878C152.596 173.113 150.825 172.369 148.769 172.378C146.713 172.389 144.983 173.146 143.988 173.92C142.973 174.698 142.629 175.424 142.816 175.603Z"
        fill="#263238" />
      <path
        d="M178.549 179.393C178.492 181.012 179.816 182.396 181.507 182.488C183.194 182.578 184.611 181.342 184.669 179.721C184.726 178.102 183.403 176.714 181.714 176.624C180.023 176.534 178.606 177.773 178.549 179.393Z"
        fill="#263238" />
      <path
        d="M145.795 179.393C145.738 181.012 147.062 182.396 148.753 182.488C150.44 182.578 151.857 181.342 151.915 179.721C151.972 178.102 150.649 176.714 148.96 176.624C147.269 176.534 145.852 177.773 145.795 179.393Z"
        fill="#263238" />
      <path
        d="M162.956 200.084C162.971 199.896 160.919 199.541 157.594 199.117C156.751 199.03 155.953 198.863 155.811 198.287C155.612 197.677 155.965 196.77 156.374 195.788C157.167 193.748 157.995 191.61 158.867 189.37C162.329 180.23 164.835 172.715 164.466 172.579C164.096 172.442 160.991 179.739 157.528 188.879C156.695 191.133 155.898 193.281 155.141 195.337C154.822 196.294 154.273 197.38 154.703 198.645C154.93 199.275 155.549 199.732 156.089 199.878C156.63 200.043 157.104 200.052 157.521 200.077C160.867 200.256 162.944 200.272 162.956 200.084Z"
        fill="#263238" />
      <path
        d="M165.437 207.235C164.951 207.007 163.606 210.328 159.811 211.542C156.019 212.766 152.625 210.967 152.413 211.422C152.283 211.612 152.943 212.385 154.42 213.028C155.867 213.668 158.199 214.06 160.521 213.316C162.839 212.567 164.364 210.938 165.025 209.62C165.712 208.28 165.672 207.307 165.437 207.235Z"
        fill="#263238" />
      <path
        d="M143.277 168.279C143.858 169.029 146.132 168.25 148.866 168.213C151.6 168.081 153.917 168.718 154.449 167.933C154.683 167.552 154.319 166.802 153.307 166.091C152.311 165.384 150.642 164.806 148.764 164.864C146.884 164.923 145.256 165.602 144.305 166.37C143.339 167.141 143.021 167.913 143.277 168.279Z"
        fill="#263238" />
      <path
        d="M174.842 168.279C175.423 169.029 177.697 168.25 180.431 168.213C183.164 168.081 185.482 168.718 186.014 167.933C186.248 167.552 185.884 166.802 184.872 166.091C183.875 165.384 182.207 164.806 180.329 164.864C178.449 164.923 176.821 165.602 175.87 166.37C174.904 167.141 174.585 167.913 174.842 168.279Z"
        fill="#263238" />
      <path
        d="M179.793 138.117C179.793 138.117 178.41 167.375 198.854 170.486L199.191 185.167L205.549 186.463L208.054 170.716C208.054 170.716 217.388 168.133 216.543 177.695C214.806 197.36 202.582 194.673 202.582 194.673L198.683 216.289C198.683 216.289 223.543 190.053 222.966 161.18C222.387 132.306 214.054 136.482 214.054 136.482L179.793 138.117Z"
        fill="#2F3F5C" />
      <path
        d="M224.364 158.623C224.364 158.623 15.7344 156.575 139.598 141.352C139.598 141.352 139.677 106.826 156.131 105.634C197.248 102.654 229.879 96.7751 224.364 158.623Z"
        fill="#E09642" />
      <path
        d="M304.108 479.146V480.126H299.509V479.35L301.987 476.998C302.591 476.418 302.7 476.052 302.7 475.704C302.7 475.133 302.308 474.804 301.541 474.804C300.935 474.804 300.427 475.008 300.079 475.455L299.267 474.829C299.748 474.18 300.614 473.796 301.639 473.796C302.992 473.796 303.867 474.482 303.867 475.588C303.867 476.194 303.698 476.748 302.834 477.558L301.166 479.145H304.108V479.146Z"
        fill="#263238" />
      <path
        d="M306.295 479.448C306.295 479.646 306.25 479.806 306.09 480.215L305.635 481.473H304.912L305.268 480.109C305.02 480.002 304.85 479.771 304.85 479.449C304.85 479.004 305.163 478.71 305.571 478.71C305.992 478.709 306.295 479.012 306.295 479.448Z"
        fill="#263238" />
      <path
        d="M311.653 479.146V480.126H307.053V479.35L309.531 476.998C310.136 476.418 310.244 476.052 310.244 475.704C310.244 475.133 309.853 474.804 309.086 474.804C308.48 474.804 307.972 475.008 307.624 475.455L306.812 474.829C307.293 474.18 308.159 473.796 309.183 473.796C310.538 473.796 311.411 474.482 311.411 475.588C311.411 476.194 311.242 476.748 310.378 477.558L308.711 479.145H311.653V479.146Z"
        fill="#263238" />
      <path
        d="M316.862 478.21C316.862 479.307 316.069 480.215 314.394 480.215C313.511 480.215 312.62 479.948 312.05 479.494L312.539 478.591C312.994 478.967 313.671 479.206 314.376 479.206C315.204 479.206 315.694 478.842 315.694 478.253C315.694 477.655 315.312 477.282 314.018 477.282H312.514L312.834 473.886H316.496V474.858H313.814L313.68 476.302H314.277C316.122 476.303 316.862 477.104 316.862 478.21Z"
        fill="#263238" />
      <path d="M403.71 472.796V479.035H402.551V473.767H401.233V472.796H403.71Z" fill="#263238" />
      <path
        d="M406.378 478.357C406.378 478.555 406.333 478.715 406.174 479.124L405.718 480.382H404.995L405.351 479.018C405.103 478.912 404.933 478.681 404.933 478.358C404.933 477.914 405.246 477.619 405.654 477.619C406.073 477.618 406.378 477.921 406.378 478.357Z"
        fill="#263238" />
      <path
        d="M411.665 477.119C411.665 478.216 410.871 479.125 409.196 479.125C408.313 479.125 407.423 478.857 406.852 478.403L407.342 477.501C407.796 477.876 408.474 478.116 409.178 478.116C410.006 478.116 410.496 477.751 410.496 477.162C410.496 476.565 410.114 476.191 408.822 476.191H407.316L407.636 472.796H411.299V473.767H408.616L408.482 475.211H409.079C410.925 475.212 411.665 476.013 411.665 477.119Z"
        fill="#263238" />
      <path
        d="M412.334 475.916C412.334 473.864 413.459 472.707 414.938 472.707C416.426 472.707 417.55 473.864 417.55 475.916C417.55 477.966 416.426 479.125 414.938 479.125C413.459 479.125 412.334 477.966 412.334 475.916ZM416.383 475.916C416.383 474.409 415.793 473.714 414.939 473.714C414.092 473.714 413.503 474.409 413.503 475.916C413.503 477.422 414.092 478.116 414.939 478.116C415.793 478.116 416.383 477.422 416.383 475.916Z"
        fill="#263238" />
    </svg>
  </svg>