
<svg width="32" height="32" viewBox="0 0 32 32" fill="none" xmlns="http://www.w3.org/2000/svg">
<path d="M5.33822 11.7627C6.81719 5.87099 12.7922 2.29375 18.6839 3.77272C23.2882 4.92853 26.6314 8.90791 26.9759 13.6425C30.2451 14.1816 32.4583 17.2688 31.9191 20.538C31.4399 23.4444 28.9215 25.5728 25.976 25.5611H20.9765V23.5614H25.976C28.1848 23.5614 29.9755 21.7707 29.9755 19.5618C29.9755 17.3529 28.1848 15.5622 25.976 15.5622C25.4237 15.5622 24.9761 15.1146 24.9761 14.5623C24.9811 9.59233 20.9561 5.55927 15.9861 5.55434C11.6838 5.55002 7.98025 8.59157 7.14803 12.8125C7.06585 13.234 6.72382 13.556 6.29812 13.6125C3.56454 14.0017 1.66419 16.5333 2.0534 19.2668C2.40292 21.7214 4.49869 23.549 6.97805 23.5614H10.9776V25.5611H6.97805C3.11247 25.5495 -0.0116882 22.4063 5.91278e-05 18.5407C0.00980759 15.323 2.21232 12.5263 5.33822 11.7627Z" fill="#A6A6A6"/>
<path d="M16.687 15.8523L20.6865 19.8518L19.2767 21.2617L16.9769 18.9719V28.5609H14.9771V18.9719L12.6874 21.2617L11.2776 19.8518L15.2771 15.8523C15.6671 15.4646 16.2969 15.4646 16.687 15.8523Z" fill="#A6A6A6"/>
</svg>
