<svg width="124" height="77" viewBox="0 0 124 77" fill="none" xmlns="http://www.w3.org/2000/svg">
<path d="M61.972 50.7682C58.4299 50.7682 55.5488 49.679 53.3246 47.5024C51.1013 45.3258 49.9888 42.4263 49.9888 38.8024V38.1748C49.9888 35.7459 50.4573 33.5717 51.3952 31.6555C52.3315 29.7402 53.66 28.2628 55.3774 27.2274C57.0949 26.1904 59.0551 25.6718 61.2565 25.6718C64.5583 25.6718 67.1584 26.7162 69.0545 28.8033C70.9514 30.8912 71.8999 33.8509 71.8999 37.6832V40.323H56.5265C56.7351 41.9029 57.3637 43.1703 58.412 44.1243C59.4611 45.0783 60.788 45.5562 62.3942 45.5562C64.879 45.5562 66.8198 44.6542 68.2181 42.8496L71.3859 46.4068C70.4204 47.7792 69.1097 48.8471 67.4597 49.6147C65.8088 50.3848 63.9801 50.7682 61.972 50.7682ZM61.2346 30.8839C59.9557 30.8839 58.9171 31.3185 58.1221 32.1871C57.3263 33.0564 56.8163 34.2986 56.5939 35.9168H65.5636V35.4007C65.5335 33.9624 65.1454 32.8505 64.4016 32.0642C63.6594 31.2778 62.6029 30.8839 61.2346 30.8839Z" fill="#70B64A"/>
<path d="M89.1249 32.1814C88.2463 32.0625 87.4724 32.0023 86.8049 32.0023C84.3656 32.0023 82.7667 32.8293 82.0066 34.485V50.3204H75.5591V26.1203H81.6518L81.8304 29.0051C83.1232 26.7837 84.917 25.6726 87.2069 25.6726C87.9207 25.6726 88.5898 25.7695 89.2159 25.964L89.1249 32.1814Z" fill="#70B64A"/>
<path d="M105.547 50.3204C105.251 49.7393 105.035 49.0156 104.9 48.1511C103.339 49.8955 101.307 50.7681 98.8096 50.7681C96.445 50.7681 94.4831 50.0828 92.9305 48.7104C91.3762 47.338 90.5991 45.6082 90.5991 43.5211C90.5991 40.9579 91.5476 38.9888 93.4437 37.6172C95.3398 36.244 98.0804 35.5521 101.666 35.5366H104.634V34.1512C104.634 33.032 104.347 32.1374 103.774 31.465C103.201 30.7951 102.297 30.4589 101.062 30.4589C99.9765 30.4589 99.1239 30.7202 98.5067 31.242C97.8896 31.7646 97.5818 32.4801 97.5818 33.3885H91.1334C91.1334 31.9884 91.5646 30.6901 92.4286 29.4976C93.2918 28.3043 94.5099 27.369 96.0868 26.6909C97.663 26.0129 99.4349 25.6726 101.399 25.6726C104.372 25.6726 106.733 26.4223 108.483 27.9201C110.229 29.4186 111.105 31.5245 111.105 34.2399V44.7283C111.119 47.0246 111.439 48.7633 112.064 49.9403V50.3204H105.547ZM100.217 45.8247C101.168 45.8247 102.046 45.6123 102.849 45.1874C103.652 44.7633 104.246 44.1927 104.634 43.4764V39.3168H102.224C98.9947 39.3168 97.2773 40.4345 97.0694 42.6721L97.0459 43.0531C97.0459 43.8573 97.3301 44.5207 97.8944 45.0425C98.4588 45.5643 99.2351 45.8247 100.217 45.8247Z" fill="#70B64A"/>
<path d="M52.4133 23.6865C51.2805 22.5738 49.857 22.0585 48.4076 22.2359L45.0969 22.6429C43.744 14.1668 36.7565 8.10904 29.2338 9.03374C21.7128 9.95762 16.3915 17.5278 17.1207 26.0805L13.8084 26.4874C12.3606 26.6657 11.1043 27.5106 10.2728 28.8635C9.22367 30.5591 9.03691 32.7666 9.75637 34.778L15.8742 51.8337C16.7943 54.4092 19.0761 56.0152 21.4156 55.727L48.0624 52.4539C50.4011 52.1658 52.2298 50.0649 52.5018 47.3347L54.3378 29.3014C54.5522 27.1745 53.8401 25.0784 52.4133 23.6865ZM29.6926 12.7854C35.16 12.1139 40.2637 16.6943 41.3453 23.1037L20.8723 25.6189C20.3778 19.1468 24.226 13.457 29.6926 12.7854Z" fill="#F89838" stroke="white" stroke-miterlimit="10"/>
<path d="M33.8902 44.1365C33.0652 44.2545 32.2532 43.9257 31.4533 43.154L28.7452 40.4914L30.1045 50.0608C30.2458 51.0571 30.0477 51.8638 29.5101 52.4816C28.9717 53.0986 28.301 53.4649 27.4979 53.5797C26.6518 53.7001 25.886 53.5447 25.199 53.1124C24.512 52.6818 24.0971 51.9566 23.9517 50.9391L21.6448 34.6933C21.5725 34.1846 21.596 33.7108 21.7178 33.2713C21.838 32.8325 22.0272 32.454 22.2846 32.1357C22.5412 31.8183 22.8547 31.557 23.225 31.3527C23.5953 31.1492 23.9907 31.0157 24.4146 30.9555C24.9643 30.8773 25.5328 30.9318 26.1199 31.1174C26.7078 31.3047 27.238 31.6229 27.7123 32.0747L32.8882 37.0775L36.4977 30.8211C36.8265 30.2554 37.2423 29.802 37.7441 29.4593C38.246 29.1183 38.7714 28.9074 39.3211 28.8293C39.7442 28.7691 40.1616 28.7853 40.5733 28.8781C40.9858 28.9709 41.365 29.1329 41.7109 29.3649C42.056 29.5969 42.3484 29.9062 42.5871 30.2945C42.825 30.682 42.9809 31.1305 43.0532 31.6392L45.3602 47.885C45.5047 48.9024 45.3066 49.7132 44.7682 50.3204C44.2282 50.9277 43.5356 51.2915 42.6902 51.4128C41.8652 51.5308 41.1157 51.3713 40.4393 50.9383C39.7629 50.5052 39.3528 49.7799 39.2082 48.7624L37.8497 39.1931L36.0218 42.502C35.7319 43.0417 35.4095 43.4332 35.0563 43.6774C34.7006 43.9232 34.3125 44.0754 33.8902 44.1365Z" fill="white"/>
<path d="M25.3572 33.2973C26.8645 33.2973 28.0864 32.0725 28.0864 30.5615C28.0864 29.0505 26.8645 27.8257 25.3572 27.8257C23.8499 27.8257 22.6279 29.0505 22.6279 30.5615C22.6279 32.0725 23.8499 33.2973 25.3572 33.2973Z" fill="white"/>
<path d="M38.6799 31.1069C40.1872 31.1069 41.4092 29.882 41.4092 28.371C41.4092 26.8601 40.1872 25.6352 38.6799 25.6352C37.1726 25.6352 35.9507 26.8601 35.9507 28.371C35.9507 29.882 37.1726 31.1069 38.6799 31.1069Z" fill="white"/>
<path d="M20.5297 62.148C21.3921 62.4654 22.0223 62.8537 22.4193 63.3169C22.8351 63.7963 23.043 64.3808 23.043 65.0678C23.043 65.9005 22.749 66.5916 22.1627 67.1386C21.4628 67.7906 20.4494 68.1162 19.1217 68.1162C18.6247 68.1162 17.9946 68.0055 17.2321 67.7841C16.9519 67.7027 16.7416 67.5423 16.6019 67.3022C16.4623 67.0523 16.4257 66.7967 16.4939 66.5346L16.5004 66.5142C16.5727 66.2253 16.744 66.0055 17.0153 65.8557C17.2816 65.7059 17.5658 65.6766 17.8687 65.7678C18.4517 65.9493 18.9097 66.0389 19.2435 66.0389C19.6454 66.0389 19.9548 65.964 20.1716 65.8158C20.3836 65.675 20.49 65.4764 20.49 65.2184C20.49 64.9921 20.3974 64.8024 20.2122 64.6486C19.9954 64.4719 19.6162 64.2888 19.0746 64.0983C17.2905 63.4601 16.3989 62.4907 16.3989 61.1923C16.3989 60.3148 16.7424 59.6042 17.4286 59.0605C18.1107 58.5127 19.0023 58.2383 20.1042 58.2383C20.5013 58.2383 21.0275 58.323 21.682 58.4899C21.9752 58.5582 22.1944 58.7186 22.339 58.9726C22.4786 59.2168 22.5127 59.4724 22.4405 59.7394L22.4331 59.7662C22.3568 60.0283 22.196 60.2302 21.9524 60.3702C21.695 60.5159 21.4238 60.5501 21.1396 60.472C20.7336 60.3588 20.3779 60.3026 20.0758 60.3026C19.7007 60.3026 19.4116 60.38 19.2086 60.5338C19.0372 60.66 18.9511 60.8212 18.9511 61.0157C18.9511 61.2412 19.064 61.4325 19.2898 61.5863C19.4985 61.7247 19.9118 61.9127 20.5297 62.148Z" fill="#787878"/>
<path d="M30.0333 59.4862C30.0333 59.1508 30.1551 58.8611 30.3987 58.6177C30.6423 58.3743 30.9428 58.2514 31.2993 58.2514H31.3196C31.6761 58.2514 31.9765 58.3735 32.2201 58.6177C32.4637 58.8619 32.5863 59.1508 32.5863 59.4862V63.8248C32.5863 64.9473 32.1868 65.9094 31.387 66.7104C30.5871 67.5114 29.6167 67.9127 28.4742 67.9127H28.393C27.2237 67.9127 26.2297 67.5033 25.4128 66.6836C24.5911 65.8598 24.1802 64.8708 24.1802 63.7165V59.4862C24.1802 59.1508 24.302 58.8611 24.5456 58.6177C24.7892 58.3743 25.0897 58.2514 25.4461 58.2514H25.4664C25.8229 58.2514 26.1234 58.3735 26.367 58.6177C26.6106 58.8619 26.7324 59.1508 26.7324 59.4862V64.0218C26.7324 64.4923 26.8948 64.8903 27.2204 65.2167C27.5461 65.5431 27.9318 65.7059 28.3784 65.7059H28.4214C28.8591 65.7059 29.2383 65.5456 29.5591 65.2241C29.875 64.9066 30.0333 64.52 30.0333 64.0625V59.4862Z" fill="#787878"/>
<path d="M36.5818 64.6535V66.7104C36.5818 67.0458 36.4624 67.3339 36.2228 67.5733C35.9833 67.8134 35.6877 67.933 35.3353 67.933H35.315C34.9585 67.933 34.6597 67.8085 34.4209 67.5594C34.1814 67.3291 34.062 67.0458 34.062 66.7104V59.588C34.062 59.2534 34.1814 58.9677 34.4209 58.7324C34.6694 58.4834 34.9715 58.3588 35.3288 58.3588H37.8956C38.0272 58.3588 38.1733 58.3686 38.3357 58.3857L38.4031 58.406C39.1656 58.5241 39.8007 58.8765 40.3065 59.465C40.8165 60.0495 41.0715 60.7284 41.0715 61.5025C41.0715 62.1309 40.875 62.7511 40.4819 63.3633C39.9493 64.2041 39.1681 64.6307 38.1384 64.6388L36.5818 64.6535ZM36.5891 62.7186H37.4896C37.8055 62.7186 38.0743 62.5989 38.296 62.3588C38.5355 62.1048 38.6549 61.7996 38.6549 61.4422C38.6549 61.08 38.5355 60.7731 38.296 60.5184C38.0751 60.2782 37.8055 60.1594 37.4896 60.1594H36.5891V62.7186Z" fill="#787878"/>
<path d="M47.7716 65.9298C48.0558 65.9298 48.2954 66.0299 48.4894 66.2285C48.6835 66.4149 48.7801 66.6404 48.7801 66.9074V66.9343C48.7801 67.2013 48.6827 67.4275 48.4894 67.6131C48.2954 67.8126 48.0558 67.9119 47.7716 67.9119H43.7886C43.3687 67.9119 43.0115 67.7645 42.7183 67.4707C42.4333 67.185 42.292 66.8431 42.292 66.445V59.8737C42.292 59.4756 42.4341 59.1337 42.7183 58.848C43.0115 58.5542 43.3687 58.4068 43.7886 58.4068H47.5613C47.891 58.4068 48.1573 58.5306 48.3603 58.7805C48.5503 59.0247 48.6137 59.2965 48.5503 59.5945L48.543 59.6148C48.4935 59.837 48.3758 60.0251 48.1906 60.1789C48.0095 60.3189 47.7976 60.3889 47.554 60.3889H44.858V61.4683H47.3916C47.6766 61.4683 47.9153 61.5684 48.1094 61.767C48.3035 61.9534 48.4009 62.1773 48.4009 62.4394V62.4597C48.4009 62.7218 48.301 62.9522 48.1029 63.1516C47.9137 63.3421 47.6766 63.4373 47.3916 63.4373H44.858V65.9298H47.7716Z" fill="#787878"/>
<path d="M57.2339 66.1064C57.3963 66.3873 57.4393 66.6836 57.363 66.9961C57.2818 67.3087 57.0967 67.5505 56.8076 67.723L56.7873 67.7369C56.4844 67.9086 56.1685 67.9518 55.8388 67.8655C55.5043 67.78 55.2517 67.592 55.0804 67.303L53.5026 64.6209L52.4997 64.6274V66.6909C52.4997 67.0214 52.3804 67.3071 52.1408 67.5472C51.9013 67.7865 51.6057 67.907 51.2533 67.907H51.2329C50.8765 67.907 50.5776 67.7825 50.3389 67.5334C50.0994 67.303 49.98 67.0214 49.98 66.6909V59.5684C49.98 59.2339 50.0994 58.9465 50.3389 58.7064C50.5874 58.4565 50.8895 58.3328 51.2468 58.3328H53.8136C53.9451 58.3328 54.0889 58.3442 54.2472 58.3661L54.3081 58.3743C55.0804 58.4956 55.7219 58.8513 56.2318 59.4398C56.7377 60.0283 56.9903 60.7105 56.9903 61.4846C56.9903 62.1089 56.7938 62.7259 56.4007 63.3372C56.2611 63.5684 56.1052 63.754 55.933 63.8948L57.2339 66.1064ZM52.5062 62.6917H53.4068C53.7226 62.6917 53.9914 62.5721 54.2131 62.3319C54.4527 62.078 54.572 61.7727 54.572 61.4154C54.572 61.058 54.4527 60.7528 54.2131 60.4988C53.9922 60.2546 53.7226 60.1325 53.4068 60.1325H52.5062V62.6917Z" fill="#787878"/>
<path d="M61.0137 66.7446C61.0137 67.0474 60.9032 67.3103 60.6815 67.5326C60.4607 67.7532 60.187 67.8647 59.8622 67.8647H59.8419C59.5171 67.8647 59.2434 67.7491 59.0225 67.5179C58.8017 67.3055 58.6904 67.0474 58.6904 66.7446V60.3083C58.6904 59.7744 58.8821 59.3145 59.2662 58.9302C59.6454 58.5501 60.1123 58.3596 60.6685 58.3596H60.7026C61.1501 58.3596 61.5488 58.4931 61.9012 58.7601C62.2536 59.0222 62.4867 59.3625 62.5987 59.7792L63.9881 64.5786L65.3491 59.7849C65.4668 59.3682 65.704 59.0239 66.0604 58.7528C66.4039 58.4907 66.801 58.3588 67.2525 58.3588H67.2866C67.8429 58.3588 68.3098 58.5493 68.689 58.9294C69.0731 59.3145 69.2647 59.7735 69.2647 60.3075V66.7438C69.2647 67.0466 69.1543 67.3046 68.9326 67.5171C68.7125 67.7483 68.4389 67.8639 68.1133 67.8639H68.0938C67.769 67.8639 67.4953 67.7523 67.2736 67.5317C67.0527 67.3103 66.9423 67.0466 66.9423 66.7438V62.1537L65.6544 66.6136C65.5554 66.9807 65.3523 67.2794 65.0454 67.5106C64.7336 67.7458 64.3812 67.8639 63.9889 67.8639H63.9613C63.5691 67.8639 63.2167 67.7458 62.9041 67.5106C62.5979 67.2802 62.3941 66.9815 62.295 66.6136L61.0145 62.1537V66.7446H61.0137Z" fill="#787878"/>
<path d="M78.8682 66.2497C79.0127 66.6347 78.9656 67.001 78.7261 67.3494C78.4687 67.7068 78.1203 67.8858 77.6826 67.8858H77.6558C77.3757 67.8858 77.1231 67.8044 76.8974 67.6408C76.6798 67.4829 76.5336 67.277 76.4565 67.023L76.0431 65.767H73.3537L72.9745 67.0035C72.8973 67.2656 72.7487 67.4756 72.527 67.6343C72.3013 67.8012 72.0479 67.8858 71.7686 67.8858H71.6525C71.2099 67.8858 70.864 67.7092 70.6171 67.3567C70.3776 67.0214 70.3256 66.6575 70.4612 66.2627L72.7097 59.7109C72.8462 59.3169 73.0825 58.9978 73.4219 58.7536C73.7694 58.4988 74.1625 58.3735 74.6002 58.3735H74.6205C75.0484 58.3735 75.4349 58.4948 75.7784 58.739C76.1211 58.9791 76.3639 59.2941 76.5036 59.6832L78.8682 66.2497ZM75.3521 63.6758L75.4333 63.8386C75.0679 62.6933 74.7764 61.6392 74.5596 60.6746H74.804C74.6456 61.426 74.3793 62.4255 74.0049 63.6758H75.3521Z" fill="#787878"/>
<path d="M87.2734 66.1064C87.4366 66.3873 87.4797 66.6836 87.4025 66.9961C87.3205 67.3087 87.1362 67.5505 86.8463 67.723L86.8268 67.7369C86.5247 67.9086 86.2072 67.9518 85.8784 67.8655C85.5446 67.78 85.2913 67.592 85.1191 67.303L83.5413 64.6209L82.5393 64.6274V66.6909C82.5393 67.0214 82.4199 67.3071 82.1812 67.5472C81.9416 67.7865 81.6452 67.907 81.2928 67.907H81.2733C80.9168 67.907 80.618 67.7825 80.3793 67.5334C80.1397 67.303 80.0195 67.0214 80.0195 66.6909V59.5684C80.0195 59.2339 80.1397 58.9465 80.3793 58.7064C80.6269 58.4565 80.9298 58.3328 81.2863 58.3328H83.8531C83.9839 58.3328 84.1284 58.3442 84.2868 58.3661L84.3469 58.3743C85.1191 58.4956 85.7606 58.8513 86.2706 59.4398C86.7765 60.0283 87.0298 60.7105 87.0298 61.4846C87.0298 62.1089 86.8341 62.7259 86.4403 63.3372C86.3006 63.5684 86.1447 63.754 85.9726 63.8948L87.2734 66.1064ZM82.5458 62.6917H83.4463C83.763 62.6917 84.0318 62.5721 84.2527 62.3319C84.4922 62.078 84.6116 61.7727 84.6116 61.4154C84.6116 61.058 84.4922 60.7528 84.2527 60.4988C84.0318 60.2546 83.7622 60.1325 83.4463 60.1325H82.5458V62.6917Z" fill="#787878"/>
<path d="M94.9476 67.9127C94.5448 67.9127 94.2387 67.7474 94.0259 67.417L92.0137 64.5183C91.9236 64.3864 91.8034 64.3189 91.6548 64.314C91.5013 64.3099 91.3722 64.3685 91.2691 64.4906L91.2958 64.4638V66.6705C91.2958 67.01 91.174 67.2981 90.9296 67.5334C90.686 67.7865 90.3839 67.9135 90.0226 67.9135H90.0023C89.6409 67.9135 89.3388 67.7865 89.0952 67.5334C88.8508 67.2981 88.729 67.01 88.729 66.6705V59.6498C88.729 59.3104 88.8508 59.0222 89.0952 58.787C89.3388 58.5338 89.6409 58.4068 90.0023 58.4068H90.0226C90.3839 58.4068 90.686 58.5338 90.9296 58.787C91.174 59.0222 91.2958 59.3104 91.2958 59.6498V61.2721C91.2958 61.2949 91.2975 61.3063 91.3023 61.3063H91.2885L93.0352 58.9636C93.248 58.6421 93.5525 58.4817 93.9504 58.4817H93.9772C94.4149 58.4817 94.7356 58.6689 94.9394 59.045C95.1384 59.4113 95.123 59.767 94.8915 60.1113L93.8278 61.7271C93.5298 62.1846 93.5298 62.6412 93.8278 63.0987L95.8944 66.2831C96.1193 66.6274 96.1331 66.9823 95.9342 67.3494C95.7312 67.7255 95.4088 67.9127 94.9662 67.9127H94.9476Z" fill="#787878"/>
<path d="M102.548 65.9298C102.833 65.9298 103.073 66.0299 103.266 66.2285C103.46 66.4149 103.557 66.6404 103.557 66.9074V66.9343C103.557 67.2013 103.46 67.4275 103.266 67.6131C103.073 67.8126 102.833 67.9119 102.548 67.9119H98.5651C98.1453 67.9119 97.7888 67.7645 97.4957 67.4707C97.2106 67.185 97.0693 66.8431 97.0693 66.445V59.8737C97.0693 59.4756 97.2114 59.1337 97.4957 58.848C97.7888 58.5542 98.1461 58.4068 98.5651 58.4068H102.338C102.667 58.4068 102.934 58.5306 103.137 58.7805C103.327 59.0247 103.39 59.2965 103.327 59.5945L103.319 59.6148C103.269 59.837 103.152 60.0251 102.966 60.1789C102.785 60.3189 102.574 60.3889 102.33 60.3889H99.6345V61.4683H102.167C102.453 61.4683 102.692 61.5684 102.886 61.767C103.08 61.9534 103.177 62.1773 103.177 62.4394V62.4597C103.177 62.7218 103.078 62.9522 102.879 63.1516C102.689 63.3421 102.453 63.4373 102.167 63.4373H99.6345V65.9298H102.548Z" fill="#787878"/>
<path d="M104.62 59.5131C104.552 59.2371 104.603 58.988 104.775 58.7658C104.965 58.5265 105.211 58.4068 105.514 58.4068H111.211C111.517 58.4068 111.764 58.5265 111.948 58.7658C112.124 58.988 112.176 59.2298 112.104 59.4927V59.5074C112.054 59.7109 111.948 59.8761 111.786 60.0023C111.614 60.1333 111.419 60.1992 111.202 60.1992H109.665V66.6502C109.665 66.9937 109.545 67.2875 109.306 67.5325C109.048 67.7857 108.737 67.9127 108.371 67.9127H108.352C107.99 67.9127 107.681 67.7857 107.423 67.5325C107.175 67.2875 107.051 66.9937 107.051 66.6502V60.1992H105.513C105.3 60.1992 105.108 60.1333 104.937 60.0023C104.775 59.8761 104.671 59.7165 104.625 59.5277L104.62 59.5131Z" fill="#787878"/>
</svg>
