<svg width="148" height="115" viewBox="0 0 148 115" fill="none" xmlns="http://www.w3.org/2000/svg">
<rect width="148" height="115" rx="8" fill="#E0E0E0"/>
<path fill-rule="evenodd" clip-rule="evenodd" d="M60.909 40H87.0906C89.8018 40 91.9996 42.1979 91.9996 44.909V71.0906C91.9996 73.8018 89.8018 75.9996 87.0906 75.9996H60.909C58.1979 75.9996 56 73.8018 56 71.0906V44.909C56 42.1979 58.1979 40 60.909 40ZM70.4003 59.8L63.2004 68.7999H84.8001L79.4002 61.6L75.7462 66.4779L70.4003 59.8ZM83.0002 51.7001C83.0002 50.2061 81.7942 49.0001 80.3002 49.0001C78.8063 49.0001 77.6003 50.2061 77.6003 51.7001C77.6003 53.1941 78.8063 54.4 80.3002 54.4C81.7942 54.4 83.0002 53.1941 83.0002 51.7001Z" fill="#ABABAB"/>
</svg>
