<svg width="30" height="31" viewBox="0 0 30 31" fill="none" xmlns="http://www.w3.org/2000/svg">
<g clip-path="url(#clip0)">
<path d="M16.5 3.21313C9.59644 3.21313 4 8.80958 4 15.7131C4 22.6167 9.59644 28.2131 16.5 28.2131C23.4036 28.2131 29 22.6167 29 15.7131C28.9927 8.81267 23.4005 3.22051 16.5 3.21313ZM23.3813 11.8801L14.4527 20.8087C14.104 21.1573 13.5388 21.1573 13.1902 20.8087L9.61873 17.2373C9.26403 16.8947 9.25419 16.3295 9.59676 15.9748C9.93932 15.6201 10.5045 15.6102 10.8592 15.9528C10.8667 15.96 10.874 15.9673 10.8812 15.9748L13.8214 18.915L22.1188 10.6176C22.4735 10.2751 23.0387 10.2849 23.3813 10.6395C23.7155 10.9856 23.7155 11.5341 23.3813 11.8801Z" fill="#6FBA47"/>
</g>
<defs>
<clipPath id="clip0">
<rect width="25" height="25" fill="white" transform="translate(4 3.21313)"/>
</clipPath>
</defs>
</svg>
